<svg width="318" height="93" viewBox="0 0 318 93" fill="none" xmlns="http://www.w3.org/2000/svg">
<path d="M51.3071 85.7705C51.3071 85.7705 38.0162 96.3883 25.2543 91.2981C12.4924 86.208 -0.296381 76.014 1.82571 55.2804C3.9478 34.5468 14.1818 26.5001 14.1818 26.5001L25.8446 24.8596C25.8446 24.8596 31.8982 41.2411 32.8767 43.7265C33.8552 46.2119 38.3814 58.2614 38.7234 61.7148C39.0654 65.1682 51.3071 85.7705 51.3071 85.7705Z" fill="#14C8C8"/>
<path d="M72.564 9.30224C72.3413 10.1353 71.1584 10.1353 70.9351 9.30224C70.4709 7.58175 69.1317 6.23873 67.4221 5.77939L67.4096 5.77689C66.5777 5.55253 66.5777 4.37388 67.4096 4.15015L67.4221 4.14702C69.1311 3.68768 70.4709 2.34529 70.9351 0.624795C71.1584 -0.208265 72.3413 -0.208265 72.564 0.624795C73.0281 2.34466 74.3674 3.68768 76.0769 4.14702L76.0888 4.15015C76.9208 4.37388 76.9208 5.55253 76.0888 5.77689L76.0769 5.77939C74.3605 6.24561 73.0212 7.58863 72.564 9.30224Z" fill="#00A1A1"/>
<path d="M64.4148 23.8418L65.3139 20.4803C65.5365 19.6472 66.7188 19.6472 66.942 20.4803L67.8412 23.8418C68.8184 27.4633 71.6351 30.2899 75.2316 31.2554L78.5954 32.1604C79.427 32.3835 79.427 33.5633 78.5954 33.7871L75.2316 34.692C71.6214 35.6719 68.804 38.4985 67.8412 42.105L66.942 45.4672C66.7195 46.3002 65.5371 46.3002 65.3139 45.4672L64.4148 42.105C63.4375 38.4841 60.6202 35.6588 57.0244 34.692L53.6605 33.7871C52.829 33.564 52.829 32.3841 53.6605 32.1604L57.0244 31.2554C60.6202 30.2899 63.4375 27.4633 64.4148 23.8418Z" fill="#00A1A1"/>
<path d="M49.2391 10.185C49.8606 12.4967 51.6793 14.3085 54.0093 14.9366L55.0872 15.2247C55.9206 15.4471 55.9206 16.6289 55.0872 16.852L54.0093 17.1401C51.6793 17.7688 49.8606 19.58 49.2391 21.8923L48.9465 22.9778C48.7227 23.8084 47.543 23.8084 47.3192 22.9778L47.0266 21.8923C46.3964 19.5712 44.5777 17.7588 42.2563 17.1401L41.1785 16.852C40.3451 16.6289 40.3451 15.4471 41.1785 15.2247L42.2563 14.9366C44.5864 14.3085 46.4051 12.4967 47.0266 10.185L47.3192 9.09949C47.543 8.26892 48.7227 8.26892 48.9465 9.09949L49.2391 10.185Z" fill="#00A1A1"/>
<path d="M55.6667 43.2128C54.4222 42.5941 52.037 43.4706 51 43.9862L44 50.9464L48.6667 61H49.4444L53.3333 57.1332L56.4444 51.7197L58 48.6263V45.5329C57.7407 45.0173 56.9111 43.8315 55.6667 43.2128Z" fill="white"/>
<path d="M53.2532 44.9865C56.0259 44.9865 56.4936 48.4781 55.3639 50.5242C53.5814 53.7478 50.8518 57.5037 47.4558 59.1655C46.7606 59.5048 45.9547 59.6698 45.1363 59.6698C42.5693 59.6698 39.8509 58.0599 39.9128 55.2001C39.9747 52.3572 44.8125 50.9823 46.6587 49.2093C48.6168 47.3282 49.9603 45.2384 52.975 44.9997C53.0694 44.9903 53.1638 44.9865 53.2532 44.9865ZM53.2532 42.4492C53.0957 42.4492 52.9331 42.4555 52.7731 42.468C49.3714 42.7379 47.4439 44.7497 45.8947 46.3652C45.5558 46.7189 45.2338 47.0545 44.8975 47.3795C44.5036 47.7576 43.6502 48.2488 42.8231 48.7256C40.5543 50.0318 37.4458 51.8223 37.3733 55.1445C37.3339 56.94 37.9766 58.5674 39.2314 59.8498C40.6774 61.3259 42.8844 62.2078 45.1363 62.2078C46.3661 62.2078 47.5527 61.9434 48.573 61.4441C52.7174 59.4173 55.7627 55.0539 57.587 51.7504C58.7474 49.6499 58.7637 46.8395 57.6283 44.9165C56.7037 43.3485 55.1082 42.4492 53.2532 42.4492Z" fill="#00A1A1"/>
<path d="M45.1412 62.9943C42.6829 62.9943 40.2659 62.0244 38.6748 60.4002C37.2681 58.9621 36.5479 57.1391 36.5923 55.1274C36.6748 51.3621 40.1415 49.366 42.436 48.0448C43.1893 47.6105 44.0346 47.123 44.3584 46.8124C44.6854 46.4968 45.0005 46.1687 45.3318 45.8225C46.8898 44.1976 49.0186 41.9784 52.7166 41.6847C55.0986 41.5009 57.153 42.554 58.3109 44.5195C59.5813 46.6693 59.5681 49.7997 58.2809 52.1314C56.4021 55.5336 53.2537 60.0333 48.9242 62.1513C47.7945 62.7031 46.4872 62.9943 45.1412 62.9943ZM53.258 43.2358C53.1205 43.2358 52.9786 43.2408 52.8379 43.2514C49.7388 43.4977 48.002 45.3081 46.4703 46.9062C46.1215 47.2705 45.792 47.6124 45.4488 47.9448C44.9849 48.3898 44.1321 48.8816 43.2287 49.4022C40.9955 50.6884 38.2265 52.282 38.164 55.1624C38.129 56.7411 38.6942 58.1728 39.7983 59.3015C41.0993 60.6301 43.0968 61.4238 45.1412 61.4238C46.249 61.4238 47.3181 61.1876 48.2327 60.7408C52.194 58.8028 55.1349 54.5768 56.9042 51.3727C57.9364 49.5041 57.9583 47.0143 56.9567 45.3181C56.1765 43.9945 54.8285 43.2358 53.258 43.2358ZM45.1412 60.4564C43.3525 60.4564 41.6138 59.7715 40.4903 58.624C39.5732 57.6872 39.1037 56.4979 39.1318 55.1843C39.1824 52.8495 41.5851 51.4658 43.7045 50.2453C44.6635 49.6928 45.5707 49.1704 46.119 48.6435C46.4847 48.2917 46.8292 47.9323 47.1668 47.5792C48.6479 46.0331 50.1802 44.4338 52.9167 44.217C53.0274 44.207 53.1449 44.202 53.258 44.202C54.4941 44.202 55.5112 44.7726 56.1227 45.8075C56.9461 47.2005 56.9173 49.3447 56.0564 50.9046C54.3509 53.9888 51.5356 58.0472 47.8057 59.8714C47.0236 60.2539 46.1021 60.4564 45.1412 60.4564ZM53.258 45.7731C53.1918 45.7731 53.1211 45.7756 53.0499 45.7825C50.9011 45.9531 49.6963 47.2105 48.3015 48.666C47.9489 49.0341 47.5894 49.4091 47.2074 49.7766C46.521 50.4359 45.5338 51.0046 44.4885 51.6064C42.7292 52.6207 40.7342 53.7688 40.7023 55.218C40.6835 56.1117 40.9893 56.8873 41.6132 57.5241C42.4472 58.3759 43.7657 58.8847 45.1405 58.8847C45.8639 58.8847 46.5466 58.7378 47.1149 58.4597C50.6541 56.7279 53.3737 52.507 54.6804 50.1447C55.2705 49.076 55.3093 47.5205 54.7691 46.6056C54.4378 46.0456 53.9439 45.7731 53.258 45.7731Z" fill="#00A1A1"/>
<path d="M49.8571 60.3678C47.1735 57.2344 44.8551 54.5309 45.0821 50.057C45.1321 49.0877 45.2009 48.0865 45.2659 47.1197C45.7761 39.7417 46.3026 32.1137 39.6912 26.5505C39.4442 26.3443 39.1823 26.1399 38.9134 25.9456C36.6669 24.3157 34.1015 23.4277 32.3433 22.9702C30.9127 22.599 29.4478 22.4103 27.9878 22.4103C23.8112 22.4103 19.5326 24.0026 15.6942 26.8611C15.5185 27.0911 15.3391 27.3167 15.1684 27.5535C11.0637 33.2367 8.55829 40.2354 7.92303 47.7959C7.29279 55.2914 8.55704 62.6176 11.5764 68.9745C16.5646 79.4766 24.8522 85.0973 36.9151 86.1572C37.9218 86.2484 38.939 86.2909 39.9413 86.2909C39.9413 86.2909 39.9426 86.2909 39.9444 86.2909C45.3078 86.2909 50.1328 85.0417 53.945 82.7188C56.3872 78.3479 56.7098 72.6054 54.5896 67.3615C53.4641 64.5787 51.6303 62.437 49.8571 60.3678Z" fill="white"/>
<path d="M27.3789 23.2349C28.702 23.2349 30.0512 23.3999 31.413 23.7555C33.4982 24.2973 35.7329 25.2035 37.5592 26.5277C37.8012 26.7046 38.0369 26.8864 38.2639 27.0777C45.2372 32.944 43.6104 41.5575 43.2039 49.548C42.7882 57.7034 50.1123 60.7375 52.8027 67.3912C55.0893 73.0463 54.5609 80.0825 50.0692 84.5252C45.7481 88.7991 39.4687 90.4621 33.4463 90.4621C32.4659 90.4621 31.4893 90.4177 30.5302 90.3327C19.4321 89.3572 11.1957 84.3258 6.22871 73.8681C0.29762 61.3824 1.57312 44.9909 9.70321 33.7345C13.8317 28.0213 20.2474 23.2349 27.3789 23.2349ZM27.3789 20.6958C23.5262 20.6958 19.7165 21.8763 16.0545 24.198C12.9201 26.1871 10.0133 28.9706 7.64365 32.249C3.40322 38.1191 0.815951 45.339 0.161942 53.1276C-0.485813 60.8481 0.817201 68.3961 3.93531 74.958C6.56009 80.4875 10.1759 84.7995 14.6802 87.7742C18.9831 90.6165 24.239 92.3282 30.3082 92.8606C31.3511 92.9525 32.4078 93.0006 33.4463 93.0006C40.9699 93.0006 47.5081 90.6321 51.8567 86.3294C54.3827 83.8296 55.9877 80.5206 56.4942 76.7534C56.9512 73.3669 56.4779 69.7029 55.1587 66.4401C53.9544 63.4629 52.0506 61.245 50.2117 59.097C47.6013 56.0511 45.5386 53.6451 45.7406 49.6767C45.79 48.7206 45.8581 47.7257 45.9244 46.762C46.4315 39.4283 47.0048 31.1129 39.8976 25.1385C39.6282 24.9104 39.343 24.6867 39.0511 24.4742C36.6432 22.7269 33.9153 21.7826 32.0545 21.2989C30.5196 20.8995 28.9452 20.6958 27.3789 20.6958Z" fill="#00A1A1"/>
<path d="M39.6595 41.8501C39.43 41.8501 39.2005 41.7557 39.0323 41.5732C37.9422 40.3733 33.8327 39.6234 32.3487 40.6377C31.9615 40.8995 31.4356 40.7995 31.1717 40.4146C30.9084 40.0296 31.0078 39.5015 31.393 39.2384C33.627 37.7148 38.677 38.6647 40.2862 40.4339C40.6001 40.7802 40.5745 41.317 40.2287 41.6295C40.066 41.777 39.8622 41.8501 39.6595 41.8501Z" fill="#00A1A1"/>
<path d="M39.6527 42.3748C39.27 42.3748 38.9004 42.2123 38.6396 41.9286C38.0386 41.2661 36.0792 40.6874 34.4456 40.6874C33.6414 40.6874 32.9997 40.8237 32.6376 41.0705C32.0278 41.4836 31.1441 41.3118 30.7326 40.7112C30.5256 40.4093 30.4493 40.045 30.5175 39.6844C30.585 39.3244 30.7883 39.0126 31.0897 38.8069C31.9084 38.2482 33.0822 37.9532 34.4844 37.9532C36.9454 37.9532 39.5452 38.8488 40.6671 40.0825C40.9142 40.3543 41.0399 40.7056 41.0217 41.0724C41.0036 41.4374 40.8441 41.7736 40.5733 42.0186C40.3213 42.248 39.9936 42.3748 39.6527 42.3748ZM34.4463 39.64C36.1817 39.64 38.5145 40.2318 39.4145 41.2224C39.5289 41.3468 39.7397 41.3605 39.8697 41.2424C39.9342 41.1849 39.9711 41.1068 39.9748 41.0212C39.9792 40.9343 39.9492 40.8512 39.891 40.7868C38.966 39.7694 36.6414 39.0019 34.4844 39.0019C33.3111 39.0019 32.3155 39.24 31.682 39.6725C31.6113 39.7206 31.5644 39.7937 31.5481 39.8787C31.5325 39.9637 31.5494 40.0494 31.5982 40.12C31.6951 40.2612 31.904 40.3031 32.0485 40.2056C32.7314 39.7381 33.7295 39.64 34.4463 39.64Z" fill="#00A1A1"/>
<path d="M14.7335 41.5562C14.5503 41.5562 14.367 41.4962 14.2126 41.3749C13.8436 41.0874 13.7798 40.5544 14.0681 40.1869C15.7379 38.0596 20.838 37.4446 22.9068 38.6483C23.3108 38.8832 23.4478 39.4007 23.212 39.8038C22.9775 40.2088 22.4597 40.3456 22.055 40.1094C20.6548 39.2963 16.509 39.8219 15.4002 41.2331C15.2332 41.4437 14.9862 41.5562 14.7335 41.5562Z" fill="#00A1A1"/>
<path d="M14.727 42.0804C14.4231 42.0804 14.1229 41.9767 13.8821 41.7873C13.595 41.5636 13.4118 41.2392 13.3667 40.8755C13.3223 40.5112 13.4224 40.1518 13.6494 39.8637C14.9227 38.2419 17.7496 37.5157 19.9866 37.5157C21.2818 37.5157 22.4107 37.757 23.1643 38.1957C23.4808 38.3801 23.7065 38.6763 23.8003 39.0294C23.8935 39.3825 23.8435 39.7518 23.659 40.0674C23.2956 40.6955 22.4176 40.9299 21.7847 40.5618C21.4432 40.3637 20.8072 40.2493 20.0423 40.2493C18.2436 40.2493 16.3831 40.8236 15.8071 41.5573C15.5431 41.8904 15.1498 42.0804 14.727 42.0804ZM19.9866 38.5638C17.6414 38.5638 15.3743 39.3644 14.4743 40.5112C14.4212 40.5787 14.3974 40.6637 14.408 40.7493C14.4187 40.8349 14.4612 40.9105 14.5287 40.963C14.6713 41.0755 14.8758 41.0449 14.9834 40.9093C15.8634 39.7887 18.1949 39.2019 20.0423 39.2019C20.7202 39.2019 21.6652 39.2812 22.3131 39.6575C22.4689 39.7487 22.6665 39.6925 22.7528 39.5425C22.7966 39.4662 22.8085 39.38 22.7866 39.2975C22.7647 39.2144 22.7115 39.145 22.6371 39.1019C22.0405 38.7544 21.0992 38.5638 19.9866 38.5638Z" fill="#00A1A1"/>
<path d="M18.4188 68.1122C19.7648 68.999 21.114 69.8096 22.5182 70.4033C23.9174 70.9989 25.3566 71.3876 26.7783 71.4588C27.4922 71.4994 28.1849 71.4588 28.8789 71.352C29.566 71.237 30.2362 71.0639 30.8108 70.7995C31.3866 70.5364 31.8636 70.2033 32.1418 69.8164C32.2106 69.7202 32.2762 69.6233 32.3262 69.5233C32.3525 69.4715 32.3775 69.4209 32.3994 69.3684C32.4106 69.3427 32.4194 69.3146 32.43 69.2871L32.4506 69.2265L32.4938 69.0865L32.5082 69.0228C32.52 68.9653 32.5313 68.9065 32.5407 68.8515C32.5544 68.7384 32.5607 68.6303 32.5544 68.5253C32.5438 68.1216 32.3675 67.7141 31.9874 67.2873C31.6204 66.8579 31.079 66.4654 30.4875 66.1248C29.8949 65.778 29.2322 65.4968 28.5619 65.2549C28.225 65.1349 27.8855 65.0387 27.5222 64.9437C27.1578 64.8449 26.7795 64.7537 26.3975 64.6612C24.8652 64.2887 23.2509 63.8988 21.723 63.1919C20.9677 62.8338 20.2231 62.3982 19.596 61.8158C18.9658 61.2465 18.4782 60.509 18.2756 59.7266C18.7602 60.3765 19.3829 60.8402 20.0499 61.1727C20.7201 61.5052 21.4404 61.7214 22.1762 61.8802C23.6554 62.2008 25.1859 62.3126 26.7745 62.4757C27.1715 62.5201 27.5741 62.5651 27.988 62.6207C28.4006 62.6801 28.8339 62.7601 29.2572 62.8663C30.1055 63.0694 30.9277 63.3651 31.7379 63.7588C32.5444 64.1569 33.334 64.6675 34.0424 65.4062C34.3906 65.7799 34.7107 66.2186 34.9539 66.7323C35.1971 67.2435 35.3515 67.8291 35.3734 68.4134C35.3866 68.7065 35.3653 68.9965 35.3215 69.274C35.2984 69.4134 35.2696 69.5483 35.2384 69.6833L35.1752 69.9083L35.1321 70.0521L35.0908 70.1727L35.0539 70.272C35.0277 70.337 35.0033 70.4008 34.9746 70.4652C34.9195 70.5958 34.8576 70.7226 34.7895 70.8464C34.6545 71.0932 34.4982 71.3276 34.3231 71.5432C33.6129 72.4056 32.702 72.9425 31.8129 73.2731C30.9189 73.6024 30.023 73.768 29.1352 73.8174C28.6932 73.8437 28.2512 73.8474 27.8086 73.818C27.3547 73.7899 26.9296 73.7293 26.4944 73.6505C24.7676 73.3212 23.1834 72.5712 21.8342 71.5988C20.4844 70.6226 19.3372 69.4371 18.4188 68.1122Z" fill="#00A1A1"/>
<path d="M28.4538 74.6222C28.2243 74.6222 27.9949 74.6153 27.7654 74.5997C27.3309 74.5722 26.8845 74.5154 26.3631 74.421C24.6295 74.0904 22.9102 73.3342 21.3835 72.2336C19.9812 71.2187 18.7702 69.9819 17.7811 68.5564L15.4629 65.2135L18.8596 67.4527C19.9305 68.1583 21.3503 69.0495 22.832 69.6757C24.2362 70.2738 25.5791 70.6075 26.8258 70.6706C27.4916 70.7088 28.0974 70.675 28.767 70.5719C29.4497 70.4575 30.0324 70.2925 30.4894 70.0826C30.9683 69.8638 31.3303 69.6051 31.511 69.3539C31.5541 69.2939 31.5998 69.2326 31.6323 69.167C31.651 69.1307 31.6679 69.097 31.6823 69.062L31.7742 68.7152C31.7767 68.6858 31.7811 68.6239 31.7779 68.5639C31.7711 68.3183 31.651 68.0777 31.4091 67.8065C31.1265 67.4765 30.6788 67.1328 30.1037 66.8022C29.6141 66.5159 29.0271 66.2516 28.3044 65.991C28.0337 65.8947 27.7336 65.8047 27.3341 65.7016C26.9677 65.6023 26.597 65.5129 26.2225 65.4223C24.6188 65.0329 22.9902 64.6367 21.4022 63.9024C20.42 63.4368 19.6817 62.9568 19.0703 62.3887C18.3094 61.7013 17.7573 60.8226 17.5235 59.9202L16.5201 56.043L18.9152 59.254C19.2828 59.7471 19.7861 60.1545 20.4107 60.4658C20.9533 60.7357 21.5704 60.9401 22.3513 61.1088C23.5304 61.3644 24.7501 61.4832 26.0412 61.6094L26.9471 61.7C27.3253 61.7425 27.7092 61.7857 28.1031 61.8394C28.587 61.9088 29.0408 61.9963 29.4572 62.1006C30.3575 62.3163 31.2215 62.6269 32.0905 63.0487C33.1033 63.5487 33.9286 64.1405 34.6182 64.8592C35.064 65.3367 35.4166 65.8491 35.6729 66.3928C35.9711 67.0197 36.1424 67.7077 36.168 68.3802C36.1818 68.7039 36.1612 69.0464 36.1062 69.3939C36.0799 69.5551 36.0474 69.707 36.013 69.8576L35.7704 70.6156C35.7479 70.6725 35.7248 70.7288 35.6991 70.785C35.6423 70.9212 35.5691 71.0731 35.4872 71.2212C35.3284 71.5118 35.1446 71.7862 34.9414 72.0355C34.2224 72.9086 33.2659 73.571 32.0962 74.006C31.1828 74.3422 30.2056 74.541 29.1884 74.5978C28.9452 74.6141 28.6995 74.6222 28.4538 74.6222ZM23.0277 71.4431C24.175 72.1493 25.4135 72.6405 26.6507 72.8767C27.1096 72.9598 27.4866 73.008 27.8667 73.0323C28.2806 73.0592 28.6876 73.0561 29.0971 73.0317C29.9736 72.9823 30.7751 72.8198 31.5504 72.5342C32.455 72.198 33.1877 71.6956 33.7254 71.0425C33.8655 70.8706 33.9955 70.6763 34.1093 70.4681C34.1643 70.3675 34.2143 70.2657 34.2587 70.1607L34.4313 69.6832L34.4913 69.4695C34.51 69.3857 34.535 69.267 34.5557 69.1445C34.5932 68.907 34.6076 68.6702 34.5976 68.4458C34.5807 67.9865 34.4581 67.4984 34.2531 67.0671C34.0649 66.6691 33.8042 66.2903 33.4772 65.9404C32.9158 65.3548 32.2531 64.8823 31.3997 64.4611C30.6395 64.0924 29.8805 63.8193 29.084 63.6287C28.712 63.5355 28.3112 63.458 27.8855 63.3968C27.5097 63.3455 27.1384 63.3043 26.7726 63.2631L25.8886 63.1749C24.8358 63.0718 23.8286 62.9737 22.8289 62.8025C24.0487 63.2774 25.3247 63.588 26.5651 63.8893C26.9808 63.9893 27.366 64.083 27.7373 64.1836C28.1756 64.2967 28.5176 64.3992 28.8358 64.513C29.6529 64.8073 30.325 65.1117 30.8945 65.4448C31.6285 65.8666 32.2018 66.3153 32.5944 66.7747C33.0765 67.3146 33.334 67.9002 33.3497 68.502C33.3572 68.6283 33.3509 68.7808 33.3297 68.9464C33.3134 69.0458 33.3009 69.1132 33.2872 69.1807L33.1827 69.5401C33.1577 69.6088 33.1459 69.6407 33.1334 69.6707C33.1046 69.7388 33.0721 69.8057 33.0377 69.8757C32.9614 70.0269 32.8702 70.1588 32.7908 70.27C32.4406 70.7569 31.8886 71.1731 31.1459 71.5124C30.5638 71.7806 29.8467 71.9868 29.0165 72.1249C28.225 72.2468 27.4985 72.2843 26.7414 72.2411C25.561 72.1811 24.3138 71.913 23.0277 71.4431Z" fill="#00A1A1"/>
<path d="M27.2155 50.7446C27.1211 50.7446 27.0266 50.7446 26.936 50.7414C24.2785 50.6339 21.5735 48.9891 21.5423 46.0543C21.5379 45.5868 21.9124 45.2037 22.3808 45.1993C22.3839 45.1993 22.3864 45.1993 22.3889 45.1993C22.8529 45.1993 23.2324 45.5712 23.2355 46.0368C23.2574 48.0029 25.2027 48.9778 27.0016 49.0503C28.9313 49.1284 30.9647 48.2129 31.1673 45.9943C31.2085 45.5293 31.6194 45.1837 32.0858 45.2275C32.5529 45.2706 32.8937 45.6831 32.8543 46.1493C32.5617 49.3384 29.781 50.7446 27.2155 50.7446Z" fill="#00A1A1"/>
<path d="M27.2082 51.2659C27.1069 51.2659 27.005 51.2653 26.9081 51.2615C24.0037 51.144 21.0461 49.3192 21.011 46.0569C21.0042 45.3001 21.6132 44.6795 22.3685 44.672C23.1314 44.672 23.746 45.2813 23.7523 46.0294C23.7704 47.653 25.4568 48.4611 27.015 48.5242C28.5426 48.5792 30.4553 47.9399 30.6379 45.9438C30.7048 45.1907 31.3645 44.6295 32.1273 44.7032C32.8764 44.772 33.4336 45.4401 33.3685 46.1913C33.0471 49.6973 30.0433 51.2659 27.2082 51.2659ZM22.381 45.7194C22.2003 45.7213 22.0571 45.8682 22.0584 46.0463C22.0865 48.6542 24.5401 50.1172 26.9494 50.2147C27.0325 50.2185 27.1201 50.2178 27.2076 50.2178C29.5662 50.2178 32.0636 48.9442 32.3243 46.0988C32.3393 45.9219 32.2074 45.7625 32.0298 45.7463C32.0298 45.7463 32.0279 45.7463 32.026 45.7463C31.8328 45.7463 31.6959 45.875 31.6809 46.0382C31.4489 48.5798 29.1072 49.6616 26.9719 49.571C24.9341 49.4879 22.7281 48.348 22.7031 46.04C22.7024 45.8625 22.558 45.7194 22.381 45.7194Z" fill="#00A1A1"/>
<mask id="path-18-outside-1_3927_86172" maskUnits="userSpaceOnUse" x="94.2191" y="37.0006" width="84" height="43" fill="black">
<rect fill="white" x="94.2191" y="37.0006" width="84" height="43"/>
<path d="M97.9151 78.2706C97.2311 78.2706 96.6551 78.0366 96.1871 77.5686C95.7191 77.1006 95.4851 76.5246 95.4851 75.8406V40.7946C95.4851 40.0746 95.7191 39.4806 96.1871 39.0126C96.6551 38.5446 97.2311 38.3106 97.9151 38.3106C98.6351 38.3106 99.2291 38.5446 99.6971 39.0126C100.165 39.4806 100.399 40.0746 100.399 40.7946V75.8406C100.399 76.5246 100.165 77.1006 99.6971 77.5686C99.2291 78.0366 98.6351 78.2706 97.9151 78.2706ZM122.324 78.5406C117.932 78.5406 114.494 77.2986 112.01 74.8146C109.562 72.2946 108.338 68.7666 108.338 64.2306C108.338 61.7826 108.788 59.4786 109.688 57.3186C110.588 55.1226 111.992 53.3406 113.9 51.9726C115.808 50.6046 118.256 49.9206 121.244 49.9206C124.016 49.9206 126.356 50.5686 128.264 51.8646C130.172 53.1246 131.612 54.7806 132.584 56.8326C133.592 58.8846 134.096 61.1166 134.096 63.5286C134.096 64.2126 133.862 64.7886 133.394 65.2566C132.962 65.7246 132.368 65.9586 131.612 65.9586H113.306C113.594 68.3706 114.512 70.3146 116.06 71.7906C117.608 73.2306 119.84 73.9506 122.756 73.9506C124.376 73.9506 125.744 73.8066 126.86 73.5186C127.976 73.1946 129.038 72.7806 130.046 72.2766C130.334 72.1326 130.658 72.0606 131.018 72.0606C131.594 72.0606 132.098 72.2586 132.53 72.6546C132.962 73.0506 133.178 73.5546 133.178 74.1666C133.178 74.5986 133.034 74.9946 132.746 75.3546C132.494 75.6786 132.17 75.9486 131.774 76.1646C130.586 76.8486 129.29 77.4246 127.886 77.8926C126.518 78.3246 124.664 78.5406 122.324 78.5406ZM113.306 61.9626H129.236C129.128 60.0906 128.642 58.5786 127.778 57.4266C126.95 56.2746 125.942 55.4286 124.754 54.8886C123.566 54.3486 122.396 54.0786 121.244 54.0786C120.092 54.0786 118.922 54.3486 117.734 54.8886C116.546 55.4286 115.538 56.2746 114.71 57.4266C113.882 58.5786 113.414 60.0906 113.306 61.9626ZM142.172 78.2706C141.488 78.2706 140.93 78.0546 140.498 77.6226C140.066 77.1546 139.85 76.5426 139.85 75.7866C139.85 75.2466 140.03 74.7426 140.39 74.2746L148.76 64.3926L140.39 54.1866C139.994 53.6826 139.796 53.1606 139.796 52.6206C139.796 51.8646 140.03 51.2706 140.498 50.8386C140.966 50.4066 141.542 50.1906 142.226 50.1906C143.09 50.1906 143.738 50.4966 144.17 51.1086L151.73 60.4506L159.236 51.1086C159.668 50.4966 160.298 50.1906 161.126 50.1906C161.846 50.1906 162.44 50.4246 162.908 50.8926C163.376 51.3246 163.61 51.8646 163.61 52.5126C163.61 53.0526 163.43 53.5566 163.07 54.0246L154.538 64.0686L162.962 74.2206C163.178 74.4726 163.322 74.7426 163.394 75.0306C163.502 75.3186 163.556 75.5706 163.556 75.7866C163.556 76.3986 163.34 76.9746 162.908 77.5146C162.512 78.0186 161.9 78.2706 161.072 78.2706C160.28 78.2706 159.65 77.9466 159.182 77.2986L151.514 68.1186L144.278 77.1906C143.738 77.9106 143.036 78.2706 142.172 78.2706ZM173.979 44.8446C173.223 44.8446 172.575 44.5746 172.035 44.0346C171.495 43.4946 171.225 42.8466 171.225 42.0906V41.8746C171.225 41.1186 171.495 40.4706 172.035 39.9306C172.575 39.3906 173.223 39.1206 173.979 39.1206H174.303C175.059 39.1206 175.707 39.3906 176.247 39.9306C176.787 40.4706 177.057 41.1186 177.057 41.8746V42.0906C177.057 42.8466 176.787 43.4946 176.247 44.0346C175.707 44.5746 175.059 44.8446 174.303 44.8446H173.979ZM174.087 78.2706C173.403 78.2706 172.827 78.0366 172.359 77.5686C171.891 77.1006 171.657 76.5246 171.657 75.8406V52.6746C171.657 51.9546 171.891 51.3606 172.359 50.8926C172.827 50.4246 173.403 50.1906 174.087 50.1906C174.807 50.1906 175.401 50.4246 175.869 50.8926C176.337 51.3606 176.571 51.9546 176.571 52.6746V75.8406C176.571 76.5246 176.337 77.1006 175.869 77.5686C175.401 78.0366 174.807 78.2706 174.087 78.2706Z"/>
</mask>
<path d="M97.9151 78.2706C97.2311 78.2706 96.6551 78.0366 96.1871 77.5686C95.7191 77.1006 95.4851 76.5246 95.4851 75.8406V40.7946C95.4851 40.0746 95.7191 39.4806 96.1871 39.0126C96.6551 38.5446 97.2311 38.3106 97.9151 38.3106C98.6351 38.3106 99.2291 38.5446 99.6971 39.0126C100.165 39.4806 100.399 40.0746 100.399 40.7946V75.8406C100.399 76.5246 100.165 77.1006 99.6971 77.5686C99.2291 78.0366 98.6351 78.2706 97.9151 78.2706ZM122.324 78.5406C117.932 78.5406 114.494 77.2986 112.01 74.8146C109.562 72.2946 108.338 68.7666 108.338 64.2306C108.338 61.7826 108.788 59.4786 109.688 57.3186C110.588 55.1226 111.992 53.3406 113.9 51.9726C115.808 50.6046 118.256 49.9206 121.244 49.9206C124.016 49.9206 126.356 50.5686 128.264 51.8646C130.172 53.1246 131.612 54.7806 132.584 56.8326C133.592 58.8846 134.096 61.1166 134.096 63.5286C134.096 64.2126 133.862 64.7886 133.394 65.2566C132.962 65.7246 132.368 65.9586 131.612 65.9586H113.306C113.594 68.3706 114.512 70.3146 116.06 71.7906C117.608 73.2306 119.84 73.9506 122.756 73.9506C124.376 73.9506 125.744 73.8066 126.86 73.5186C127.976 73.1946 129.038 72.7806 130.046 72.2766C130.334 72.1326 130.658 72.0606 131.018 72.0606C131.594 72.0606 132.098 72.2586 132.53 72.6546C132.962 73.0506 133.178 73.5546 133.178 74.1666C133.178 74.5986 133.034 74.9946 132.746 75.3546C132.494 75.6786 132.17 75.9486 131.774 76.1646C130.586 76.8486 129.29 77.4246 127.886 77.8926C126.518 78.3246 124.664 78.5406 122.324 78.5406ZM113.306 61.9626H129.236C129.128 60.0906 128.642 58.5786 127.778 57.4266C126.95 56.2746 125.942 55.4286 124.754 54.8886C123.566 54.3486 122.396 54.0786 121.244 54.0786C120.092 54.0786 118.922 54.3486 117.734 54.8886C116.546 55.4286 115.538 56.2746 114.71 57.4266C113.882 58.5786 113.414 60.0906 113.306 61.9626ZM142.172 78.2706C141.488 78.2706 140.93 78.0546 140.498 77.6226C140.066 77.1546 139.85 76.5426 139.85 75.7866C139.85 75.2466 140.03 74.7426 140.39 74.2746L148.76 64.3926L140.39 54.1866C139.994 53.6826 139.796 53.1606 139.796 52.6206C139.796 51.8646 140.03 51.2706 140.498 50.8386C140.966 50.4066 141.542 50.1906 142.226 50.1906C143.09 50.1906 143.738 50.4966 144.17 51.1086L151.73 60.4506L159.236 51.1086C159.668 50.4966 160.298 50.1906 161.126 50.1906C161.846 50.1906 162.44 50.4246 162.908 50.8926C163.376 51.3246 163.61 51.8646 163.61 52.5126C163.61 53.0526 163.43 53.5566 163.07 54.0246L154.538 64.0686L162.962 74.2206C163.178 74.4726 163.322 74.7426 163.394 75.0306C163.502 75.3186 163.556 75.5706 163.556 75.7866C163.556 76.3986 163.34 76.9746 162.908 77.5146C162.512 78.0186 161.9 78.2706 161.072 78.2706C160.28 78.2706 159.65 77.9466 159.182 77.2986L151.514 68.1186L144.278 77.1906C143.738 77.9106 143.036 78.2706 142.172 78.2706ZM173.979 44.8446C173.223 44.8446 172.575 44.5746 172.035 44.0346C171.495 43.4946 171.225 42.8466 171.225 42.0906V41.8746C171.225 41.1186 171.495 40.4706 172.035 39.9306C172.575 39.3906 173.223 39.1206 173.979 39.1206H174.303C175.059 39.1206 175.707 39.3906 176.247 39.9306C176.787 40.4706 177.057 41.1186 177.057 41.8746V42.0906C177.057 42.8466 176.787 43.4946 176.247 44.0346C175.707 44.5746 175.059 44.8446 174.303 44.8446H173.979ZM174.087 78.2706C173.403 78.2706 172.827 78.0366 172.359 77.5686C171.891 77.1006 171.657 76.5246 171.657 75.8406V52.6746C171.657 51.9546 171.891 51.3606 172.359 50.8926C172.827 50.4246 173.403 50.1906 174.087 50.1906C174.807 50.1906 175.401 50.4246 175.869 50.8926C176.337 51.3606 176.571 51.9546 176.571 52.6746V75.8406C176.571 76.5246 176.337 77.1006 175.869 77.5686C175.401 78.0366 174.807 78.2706 174.087 78.2706Z" fill="black"/>
<path d="M96.1871 77.5686L96.5406 77.2151L96.1871 77.5686ZM96.1871 39.0126L95.8335 38.6591L95.8335 38.6591L96.1871 39.0126ZM99.6971 39.0126L100.051 38.6591V38.6591L99.6971 39.0126ZM99.6971 77.5686L100.051 77.9222L99.6971 77.5686ZM97.9151 77.7706C97.3587 77.7706 96.9114 77.5858 96.5406 77.2151L95.8335 77.9222C96.3987 78.4874 97.1034 78.7706 97.9151 78.7706V77.7706ZM96.5406 77.2151C96.1698 76.8443 95.9851 76.397 95.9851 75.8406H94.9851C94.9851 76.6523 95.2683 77.3569 95.8335 77.9222L96.5406 77.2151ZM95.9851 75.8406V40.7946H94.9851V75.8406H95.9851ZM95.9851 40.7946C95.9851 40.1944 96.1751 39.7317 96.5406 39.3662L95.8335 38.6591C95.263 39.2295 94.9851 39.9548 94.9851 40.7946H95.9851ZM96.5406 39.3662C96.9114 38.9954 97.3587 38.8106 97.9151 38.8106V37.8106C97.1034 37.8106 96.3987 38.0938 95.8335 38.6591L96.5406 39.3662ZM97.9151 38.8106C98.5153 38.8106 98.978 39.0006 99.3435 39.3662L100.051 38.6591C99.4801 38.0886 98.7548 37.8106 97.9151 37.8106V38.8106ZM99.3435 39.3662C99.709 39.7317 99.8991 40.1944 99.8991 40.7946H100.899C100.899 39.9548 100.621 39.2295 100.051 38.6591L99.3435 39.3662ZM99.8991 40.7946V75.8406H100.899V40.7946H99.8991ZM99.8991 75.8406C99.8991 76.397 99.7143 76.8443 99.3435 77.2151L100.051 77.9222C100.616 77.3569 100.899 76.6523 100.899 75.8406H99.8991ZM99.3435 77.2151C98.978 77.5806 98.5153 77.7706 97.9151 77.7706V78.7706C98.7548 78.7706 99.4801 78.4926 100.051 77.9222L99.3435 77.2151ZM112.01 74.8146L111.652 75.163L111.657 75.1682L112.01 74.8146ZM109.688 57.3186L110.15 57.5109L110.151 57.5082L109.688 57.3186ZM113.9 51.9726L114.192 52.379L113.9 51.9726ZM128.264 51.8646L127.983 52.2783L127.989 52.2818L128.264 51.8646ZM132.584 56.8326L132.132 57.0467L132.136 57.0531L132.584 56.8326ZM133.394 65.2566L133.041 64.9031L133.034 64.9101L133.027 64.9175L133.394 65.2566ZM113.306 65.9586V65.4586H112.743L112.81 66.0179L113.306 65.9586ZM116.06 71.7906L115.715 72.1525L115.72 72.1567L116.06 71.7906ZM126.86 73.5186L126.985 74.0028L126.993 74.0009L127 73.9988L126.86 73.5186ZM130.046 72.2766L129.823 71.8294L130.046 72.2766ZM132.53 72.6546L132.868 72.286L132.53 72.6546ZM132.746 75.3546L132.356 75.0422L132.352 75.0476L132.746 75.3546ZM131.774 76.1646L131.535 75.7255L131.525 75.7313L131.774 76.1646ZM127.886 77.8926L128.037 78.3695L128.044 78.367L127.886 77.8926ZM113.306 61.9626L112.807 61.9338L112.777 62.4626H113.306V61.9626ZM129.236 61.9626V62.4626H129.766L129.735 61.9338L129.236 61.9626ZM127.778 57.4266L127.372 57.7185L127.378 57.7266L127.778 57.4266ZM124.754 54.8886L124.961 54.4334L124.754 54.8886ZM117.734 54.8886L117.527 54.4334L117.734 54.8886ZM122.324 78.0406C118.03 78.0406 114.732 76.8291 112.364 74.4611L111.657 75.1682C114.257 77.7681 117.835 79.0406 122.324 79.0406V78.0406ZM112.369 74.4662C110.036 72.0644 108.838 68.6759 108.838 64.2306H107.838C107.838 68.8573 109.089 72.5248 111.652 75.163L112.369 74.4662ZM108.838 64.2306C108.838 61.8455 109.276 59.6072 110.15 57.5109L109.227 57.1263C108.3 59.35 107.838 61.7197 107.838 64.2306H108.838ZM110.151 57.5082C111.016 55.3981 112.361 53.6916 114.192 52.379L113.609 51.5663C111.624 52.9896 110.161 54.8471 109.226 57.129L110.151 57.5082ZM114.192 52.379C115.994 51.0866 118.332 50.4206 121.244 50.4206V49.4206C118.18 49.4206 115.623 50.1226 113.609 51.5663L114.192 52.379ZM121.244 50.4206C123.937 50.4206 126.174 51.049 127.983 52.2782L128.545 51.451C126.539 50.0882 124.096 49.4206 121.244 49.4206V50.4206ZM127.989 52.2818C129.821 53.4919 131.2 55.0778 132.132 57.0467L133.036 56.6186C132.025 54.4834 130.524 52.7574 128.54 51.4474L127.989 52.2818ZM132.136 57.0531C133.108 59.0327 133.596 61.1887 133.596 63.5286H134.596C134.596 61.0445 134.077 58.7365 133.033 56.6122L132.136 57.0531ZM133.596 63.5286C133.596 64.085 133.412 64.5323 133.041 64.9031L133.748 65.6102C134.313 65.0449 134.596 64.3403 134.596 63.5286H133.596ZM133.027 64.9175C132.707 65.2638 132.257 65.4586 131.612 65.4586V66.4586C132.479 66.4586 133.217 66.1854 133.762 65.5957L133.027 64.9175ZM131.612 65.4586H113.306V66.4586H131.612V65.4586ZM112.81 66.0179C113.11 68.5287 114.072 70.5855 115.715 72.1525L116.405 71.4287C114.953 70.0438 114.079 68.2125 113.803 65.8993L112.81 66.0179ZM115.72 72.1567C117.39 73.7109 119.762 74.4506 122.756 74.4506V73.4506C119.918 73.4506 117.826 72.7504 116.401 71.4245L115.72 72.1567ZM122.756 74.4506C124.403 74.4506 125.816 74.3046 126.985 74.0028L126.735 73.0345C125.673 73.3087 124.35 73.4506 122.756 73.4506V74.4506ZM127 73.9988C128.144 73.6666 129.234 73.2417 130.27 72.7238L129.823 71.8294C128.843 72.3195 127.809 72.7226 126.721 73.0384L127 73.9988ZM130.27 72.7238C130.481 72.6185 130.727 72.5606 131.018 72.5606V71.5606C130.59 71.5606 130.188 71.6468 129.823 71.8294L130.27 72.7238ZM131.018 72.5606C131.467 72.5606 131.851 72.7101 132.192 73.0232L132.868 72.286C132.346 71.8071 131.722 71.5606 131.018 71.5606V72.5606ZM132.192 73.0232C132.516 73.3198 132.678 73.6877 132.678 74.1666H133.678C133.678 73.4215 133.409 72.7814 132.868 72.286L132.192 73.0232ZM132.678 74.1666C132.678 74.4771 132.578 74.7645 132.356 75.0423L133.137 75.667C133.491 75.2247 133.678 74.7201 133.678 74.1666H132.678ZM132.352 75.0476C132.146 75.3123 131.877 75.5393 131.535 75.7257L132.014 76.6036C132.464 76.358 132.843 76.0449 133.141 75.6616L132.352 75.0476ZM131.525 75.7313C130.368 76.3973 129.103 76.96 127.728 77.4183L128.044 78.367C129.478 77.8892 130.805 77.2999 132.024 76.5979L131.525 75.7313ZM127.736 77.4158C126.437 77.8258 124.641 78.0406 122.324 78.0406V79.0406C124.687 79.0406 126.599 78.8234 128.037 78.3694L127.736 77.4158ZM113.306 62.4626H129.236V61.4626H113.306V62.4626ZM129.735 61.9338C129.624 59.9929 129.117 58.3779 128.178 57.1266L127.378 57.7266C128.168 58.7793 128.633 60.1883 128.737 61.9914L129.735 61.9338ZM128.184 57.1348C127.31 55.9182 126.236 55.0127 124.961 54.4334L124.547 55.3438C125.649 55.8445 126.591 56.631 127.372 57.7184L128.184 57.1348ZM124.961 54.4334C123.717 53.8678 122.477 53.5786 121.244 53.5786V54.5786C122.316 54.5786 123.416 54.8294 124.547 55.3438L124.961 54.4334ZM121.244 53.5786C120.012 53.5786 118.772 53.8678 117.527 54.4334L117.941 55.3438C119.073 54.8294 120.173 54.5786 121.244 54.5786V53.5786ZM117.527 54.4334C116.253 55.0127 115.179 55.9182 114.304 57.1348L115.116 57.7184C115.898 56.631 116.84 55.8445 117.941 55.3438L117.527 54.4334ZM114.304 57.1348C113.406 58.385 112.919 59.9969 112.807 61.9338L113.805 61.9914C113.91 60.1843 114.359 58.7723 115.116 57.7184L114.304 57.1348ZM140.498 77.6226L140.13 77.9618L140.137 77.9691L140.144 77.9762L140.498 77.6226ZM140.39 74.2746L140.008 73.9515L140.001 73.9604L139.994 73.9698L140.39 74.2746ZM148.76 64.3926L149.141 64.7158L149.411 64.3978L149.146 64.0755L148.76 64.3926ZM140.39 54.1866L139.997 54.4956L140.003 54.5037L140.39 54.1866ZM140.498 50.8386L140.837 51.206H140.837L140.498 50.8386ZM144.17 51.1086L143.761 51.3969L143.771 51.4104L143.781 51.4231L144.17 51.1086ZM151.73 60.4506L151.341 60.7651L151.731 61.2472L152.12 60.7638L151.73 60.4506ZM159.236 51.1086L159.626 51.4218L159.635 51.4097L159.644 51.3969L159.236 51.1086ZM162.908 50.8926L162.554 51.2462L162.561 51.2532L162.569 51.26L162.908 50.8926ZM163.07 54.0246L163.451 54.3483L163.459 54.3391L163.466 54.3295L163.07 54.0246ZM154.538 64.0686L154.157 63.7449L153.885 64.0648L154.153 64.3879L154.538 64.0686ZM162.962 74.2206L162.577 74.5399L162.582 74.546L162.962 74.2206ZM163.394 75.0306L162.909 75.1519L162.916 75.1795L162.926 75.2062L163.394 75.0306ZM162.908 77.5146L162.517 77.2023L162.515 77.2057L162.908 77.5146ZM159.182 77.2986L159.587 77.0059L159.577 76.9916L159.566 76.9781L159.182 77.2986ZM151.514 68.1186L151.898 67.7981L151.505 67.328L151.123 67.8068L151.514 68.1186ZM144.278 77.1906L143.887 76.8788L143.882 76.8847L143.878 76.8906L144.278 77.1906ZM142.172 77.7706C141.603 77.7706 141.178 77.5957 140.851 77.2691L140.144 77.9762C140.682 78.5135 141.373 78.7706 142.172 78.7706V77.7706ZM140.865 77.2835C140.534 76.9247 140.35 76.4419 140.35 75.7866H139.35C139.35 76.6434 139.598 77.3846 140.13 77.9618L140.865 77.2835ZM140.35 75.7866C140.35 75.3673 140.487 74.9687 140.786 74.5795L139.994 73.9698C139.573 74.5165 139.35 75.1259 139.35 75.7866H140.35ZM140.771 74.5978L149.141 64.7158L148.378 64.0695L140.008 73.9515L140.771 74.5978ZM149.146 64.0755L140.776 53.8695L140.003 54.5037L148.373 64.7097L149.146 64.0755ZM140.783 53.8777C140.443 53.4447 140.296 53.0286 140.296 52.6206H139.296C139.296 53.2926 139.545 53.9205 139.997 54.4955L140.783 53.8777ZM140.296 52.6206C140.296 51.9758 140.491 51.5257 140.837 51.206L140.159 50.4712C139.569 51.0155 139.296 51.7534 139.296 52.6206H140.296ZM140.837 51.206C141.205 50.8659 141.657 50.6906 142.226 50.6906V49.6906C141.426 49.6906 140.726 49.9473 140.159 50.4712L140.837 51.206ZM142.226 50.6906C142.956 50.6906 143.438 50.9395 143.761 51.3969L144.578 50.8203C144.037 50.0537 143.224 49.6906 142.226 49.6906V50.6906ZM143.781 51.4231L151.341 60.7651L152.119 60.1361L144.559 50.7941L143.781 51.4231ZM152.12 60.7638L159.626 51.4218L158.846 50.7954L151.34 60.1374L152.12 60.7638ZM159.644 51.3969C159.972 50.9332 160.44 50.6906 161.126 50.6906V49.6906C160.155 49.6906 159.364 50.06 158.827 50.8203L159.644 51.3969ZM161.126 50.6906C161.726 50.6906 162.189 50.8806 162.554 51.2462L163.261 50.5391C162.691 49.9686 161.966 49.6906 161.126 49.6906V50.6906ZM162.569 51.26C162.932 51.5955 163.11 52.0014 163.11 52.5126H164.11C164.11 51.7278 163.82 51.0537 163.247 50.5252L162.569 51.26ZM163.11 52.5126C163.11 52.9319 162.973 53.3305 162.674 53.7198L163.466 54.3295C163.887 53.7827 164.11 53.1733 164.11 52.5126H163.11ZM162.689 53.7009L154.157 63.7449L154.919 64.3923L163.451 54.3483L162.689 53.7009ZM154.153 64.3879L162.577 74.5399L163.347 73.9013L154.923 63.7493L154.153 64.3879ZM162.582 74.546C162.754 74.7461 162.858 74.9477 162.909 75.1519L163.879 74.9093C163.786 74.5375 163.602 74.1991 163.341 73.8952L162.582 74.546ZM162.926 75.2062C163.021 75.4599 163.056 75.6502 163.056 75.7866H164.056C164.056 75.4911 163.983 75.1773 163.862 74.855L162.926 75.2062ZM163.056 75.7866C163.056 76.2704 162.888 76.7388 162.517 77.2023L163.298 77.827C163.791 77.2105 164.056 76.5268 164.056 75.7866H163.056ZM162.515 77.2057C162.24 77.5553 161.795 77.7706 161.072 77.7706V78.7706C162.005 78.7706 162.784 78.4819 163.301 77.8235L162.515 77.2057ZM161.072 77.7706C160.442 77.7706 159.962 77.5251 159.587 77.0059L158.777 77.5914C159.337 78.3681 160.118 78.7706 161.072 78.7706V77.7706ZM159.566 76.9781L151.898 67.7981L151.13 68.4391L158.798 77.6191L159.566 76.9781ZM151.123 67.8068L143.887 76.8788L144.669 77.5024L151.905 68.4304L151.123 67.8068ZM143.878 76.8906C143.428 77.4909 142.871 77.7706 142.172 77.7706V78.7706C143.201 78.7706 144.048 78.3304 144.678 77.4906L143.878 76.8906ZM172.035 44.0346L171.681 44.3882L172.035 44.0346ZM176.247 44.0346L176.6 44.3882L176.247 44.0346ZM172.359 77.5686L172.712 77.2151L172.359 77.5686ZM172.359 50.8926L172.712 51.2462L172.359 50.8926ZM175.869 50.8926L176.222 50.5391L175.869 50.8926ZM175.869 77.5686L176.222 77.9222L175.869 77.5686ZM173.979 44.3446C173.357 44.3446 172.836 44.1284 172.388 43.6811L171.681 44.3882C172.314 45.0209 173.089 45.3446 173.979 45.3446V44.3446ZM172.388 43.6811C171.941 43.2338 171.725 42.7125 171.725 42.0906H170.725C170.725 42.9807 171.048 43.7555 171.681 44.3882L172.388 43.6811ZM171.725 42.0906V41.8746H170.725V42.0906H171.725ZM171.725 41.8746C171.725 41.2527 171.941 40.7315 172.388 40.2842L171.681 39.5771C171.048 40.2098 170.725 40.9845 170.725 41.8746H171.725ZM172.388 40.2842C172.836 39.8369 173.357 39.6206 173.979 39.6206V38.6206C173.089 38.6206 172.314 38.9444 171.681 39.5771L172.388 40.2842ZM173.979 39.6206H174.303V38.6206H173.979V39.6206ZM174.303 39.6206C174.925 39.6206 175.446 39.8369 175.893 40.2842L176.6 39.5771C175.968 38.9444 175.193 38.6206 174.303 38.6206V39.6206ZM175.893 40.2842C176.34 40.7315 176.557 41.2527 176.557 41.8746H177.557C177.557 40.9845 177.233 40.2098 176.6 39.5771L175.893 40.2842ZM176.557 41.8746V42.0906H177.557V41.8746H176.557ZM176.557 42.0906C176.557 42.7125 176.34 43.2338 175.893 43.6811L176.6 44.3882C177.233 43.7555 177.557 42.9807 177.557 42.0906H176.557ZM175.893 43.6811C175.446 44.1284 174.925 44.3446 174.303 44.3446V45.3446C175.193 45.3446 175.968 45.0209 176.6 44.3882L175.893 43.6811ZM174.303 44.3446H173.979V45.3446H174.303V44.3446ZM174.087 77.7706C173.53 77.7706 173.083 77.5858 172.712 77.2151L172.005 77.9222C172.57 78.4874 173.275 78.7706 174.087 78.7706V77.7706ZM172.712 77.2151C172.341 76.8443 172.157 76.397 172.157 75.8406H171.157C171.157 76.6523 171.44 77.3569 172.005 77.9222L172.712 77.2151ZM172.157 75.8406V52.6746H171.157V75.8406H172.157ZM172.157 52.6746C172.157 52.0744 172.347 51.6117 172.712 51.2462L172.005 50.5391C171.435 51.1095 171.157 51.8348 171.157 52.6746H172.157ZM172.712 51.2462C173.083 50.8754 173.53 50.6906 174.087 50.6906V49.6906C173.275 49.6906 172.57 49.9738 172.005 50.5391L172.712 51.2462ZM174.087 50.6906C174.687 50.6906 175.15 50.8806 175.515 51.2462L176.222 50.5391C175.652 49.9686 174.926 49.6906 174.087 49.6906V50.6906ZM175.515 51.2462C175.881 51.6117 176.071 52.0744 176.071 52.6746H177.071C177.071 51.8348 176.793 51.1095 176.222 50.5391L175.515 51.2462ZM176.071 52.6746V75.8406H177.071V52.6746H176.071ZM176.071 75.8406C176.071 76.397 175.886 76.8443 175.515 77.2151L176.222 77.9222C176.787 77.3569 177.071 76.6523 177.071 75.8406H176.071ZM175.515 77.2151C175.15 77.5806 174.687 77.7706 174.087 77.7706V78.7706C174.926 78.7706 175.652 78.4926 176.222 77.9222L175.515 77.2151Z" fill="black" mask="url(#path-18-outside-1_3927_86172)"/>
<mask id="path-20-outside-2_3927_86172" maskUnits="userSpaceOnUse" x="188.219" y="37.0006" width="125" height="43" fill="black">
<rect fill="white" x="188.219" y="37.0006" width="125" height="43"/>
<path d="M203.633 78.5406C201.761 78.5406 200.069 78.1806 198.557 77.4606C197.045 76.7406 195.659 75.7326 194.399 74.4366V75.8406C194.399 76.5246 194.165 77.1006 193.697 77.5686C193.229 78.0366 192.635 78.2706 191.915 78.2706C191.231 78.2706 190.655 78.0366 190.187 77.5686C189.719 77.1006 189.485 76.5246 189.485 75.8406V40.7946C189.485 40.0746 189.719 39.4806 190.187 39.0126C190.655 38.5446 191.231 38.3106 191.915 38.3106C192.635 38.3106 193.229 38.5446 193.697 39.0126C194.165 39.4806 194.399 40.0746 194.399 40.7946V54.0246C195.659 52.7286 197.045 51.7206 198.557 51.0006C200.069 50.2806 201.761 49.9206 203.633 49.9206C205.829 49.9206 207.917 50.4786 209.897 51.5946C211.877 52.7106 213.497 54.3306 214.757 56.4546C216.053 58.5786 216.701 61.1706 216.701 64.2306C216.701 67.2906 216.053 69.8826 214.757 72.0066C213.497 74.1306 211.877 75.7506 209.897 76.8666C207.917 77.9826 205.829 78.5406 203.633 78.5406ZM202.931 73.9506C205.487 73.9506 207.593 73.1226 209.249 71.4666C210.941 69.8106 211.787 67.3986 211.787 64.2306C211.787 61.0266 210.941 58.6146 209.249 56.9946C207.593 55.3386 205.487 54.5106 202.931 54.5106C201.167 54.5106 199.565 54.9066 198.125 55.6986C196.685 56.4546 195.443 57.4086 194.399 58.5606V69.9006C195.443 71.0526 196.685 72.0246 198.125 72.8166C199.565 73.5726 201.167 73.9506 202.931 73.9506ZM236.943 78.5406C232.551 78.5406 229.113 77.2986 226.629 74.8146C224.181 72.2946 222.957 68.7666 222.957 64.2306C222.957 61.7826 223.407 59.4786 224.307 57.3186C225.207 55.1226 226.611 53.3406 228.519 51.9726C230.427 50.6046 232.875 49.9206 235.863 49.9206C238.635 49.9206 240.975 50.5686 242.883 51.8646C244.791 53.1246 246.231 54.7806 247.203 56.8326C248.211 58.8846 248.715 61.1166 248.715 63.5286C248.715 64.2126 248.481 64.7886 248.013 65.2566C247.581 65.7246 246.987 65.9586 246.231 65.9586H227.925C228.213 68.3706 229.131 70.3146 230.679 71.7906C232.227 73.2306 234.459 73.9506 237.375 73.9506C238.995 73.9506 240.363 73.8066 241.479 73.5186C242.595 73.1946 243.657 72.7806 244.665 72.2766C244.953 72.1326 245.277 72.0606 245.637 72.0606C246.213 72.0606 246.717 72.2586 247.149 72.6546C247.581 73.0506 247.797 73.5546 247.797 74.1666C247.797 74.5986 247.653 74.9946 247.365 75.3546C247.113 75.6786 246.789 75.9486 246.393 76.1646C245.205 76.8486 243.909 77.4246 242.505 77.8926C241.137 78.3246 239.283 78.5406 236.943 78.5406ZM227.925 61.9626H243.855C243.747 60.0906 243.261 58.5786 242.397 57.4266C241.569 56.2746 240.561 55.4286 239.373 54.8886C238.185 54.3486 237.015 54.0786 235.863 54.0786C234.711 54.0786 233.541 54.3486 232.353 54.8886C231.165 55.4286 230.157 56.2746 229.329 57.4266C228.501 58.5786 228.033 60.0906 227.925 61.9626ZM263.317 78.5406C261.769 78.5406 260.311 78.2166 258.943 77.5686C257.611 76.9206 256.531 76.0026 255.703 74.8146C254.911 73.5906 254.515 72.1326 254.515 70.4406C254.515 67.8846 255.523 65.7966 257.539 64.1766C259.591 62.5206 262.723 61.6926 266.935 61.6926H273.469V61.2606C273.469 58.8486 272.875 57.1386 271.687 56.1306C270.499 55.0866 268.681 54.5646 266.233 54.5646C264.721 54.5646 263.389 54.7086 262.237 54.9966C261.121 55.2486 260.059 55.5366 259.051 55.8606C258.763 55.9326 258.529 55.9686 258.349 55.9686C257.809 55.9686 257.341 55.7706 256.945 55.3746C256.549 54.9786 256.351 54.4926 256.351 53.9166C256.351 52.9446 256.819 52.2606 257.755 51.8646C259.015 51.3246 260.401 50.8746 261.913 50.5146C263.461 50.1186 265.189 49.9206 267.097 49.9206C269.725 49.9206 271.867 50.4426 273.523 51.4866C275.179 52.5306 276.403 53.8626 277.195 55.4826C277.987 57.1026 278.383 58.7946 278.383 60.5586V75.8406C278.383 76.5246 278.131 77.1006 277.627 77.5686C277.159 78.0366 276.583 78.2706 275.899 78.2706C275.215 78.2706 274.639 78.0366 274.171 77.5686C273.703 77.1006 273.469 76.5246 273.469 75.8406V74.4366C272.497 75.4446 271.201 76.3806 269.581 77.2446C267.961 78.1086 265.873 78.5406 263.317 78.5406ZM265.153 74.2206C266.845 74.2206 268.429 73.8066 269.905 72.9786C271.381 72.1506 272.569 71.2146 273.469 70.1706V65.6346H267.583C265.063 65.6346 263.065 65.9586 261.589 66.6066C260.149 67.2546 259.429 68.3526 259.429 69.9006C259.429 71.0526 259.825 72.0606 260.617 72.9246C261.445 73.7886 262.957 74.2206 265.153 74.2206ZM290.13 78.2706C289.446 78.2706 288.87 78.0366 288.402 77.5686C287.934 77.1006 287.7 76.5246 287.7 75.8406V52.6746C287.7 51.9546 287.934 51.3606 288.402 50.8926C288.87 50.4246 289.446 50.1906 290.13 50.1906C290.814 50.1906 291.39 50.4246 291.858 50.8926C292.362 51.3606 292.614 51.9546 292.614 52.6746V54.8886C293.766 53.6286 295.116 52.4946 296.664 51.4866C298.248 50.4426 300.246 49.9206 302.658 49.9206C304.71 49.9206 306.456 50.4066 307.896 51.3786C309.336 52.3146 310.434 53.5926 311.19 55.2126C311.946 56.7966 312.324 58.5606 312.324 60.5046V75.8406C312.324 76.5246 312.072 77.1006 311.568 77.5686C311.1 78.0366 310.524 78.2706 309.84 78.2706C309.156 78.2706 308.58 78.0366 308.112 77.5686C307.644 77.1006 307.41 76.5246 307.41 75.8406V61.0446C307.41 58.9926 306.942 57.3906 306.006 56.2386C305.106 55.0506 303.594 54.4566 301.47 54.4566C299.526 54.4566 297.834 54.9786 296.394 56.0226C294.954 57.0666 293.694 58.2726 292.614 59.6406V75.8406C292.614 76.5246 292.362 77.1006 291.858 77.5686C291.39 78.0366 290.814 78.2706 290.13 78.2706Z"/>
</mask>
<path d="M203.633 78.5406C201.761 78.5406 200.069 78.1806 198.557 77.4606C197.045 76.7406 195.659 75.7326 194.399 74.4366V75.8406C194.399 76.5246 194.165 77.1006 193.697 77.5686C193.229 78.0366 192.635 78.2706 191.915 78.2706C191.231 78.2706 190.655 78.0366 190.187 77.5686C189.719 77.1006 189.485 76.5246 189.485 75.8406V40.7946C189.485 40.0746 189.719 39.4806 190.187 39.0126C190.655 38.5446 191.231 38.3106 191.915 38.3106C192.635 38.3106 193.229 38.5446 193.697 39.0126C194.165 39.4806 194.399 40.0746 194.399 40.7946V54.0246C195.659 52.7286 197.045 51.7206 198.557 51.0006C200.069 50.2806 201.761 49.9206 203.633 49.9206C205.829 49.9206 207.917 50.4786 209.897 51.5946C211.877 52.7106 213.497 54.3306 214.757 56.4546C216.053 58.5786 216.701 61.1706 216.701 64.2306C216.701 67.2906 216.053 69.8826 214.757 72.0066C213.497 74.1306 211.877 75.7506 209.897 76.8666C207.917 77.9826 205.829 78.5406 203.633 78.5406ZM202.931 73.9506C205.487 73.9506 207.593 73.1226 209.249 71.4666C210.941 69.8106 211.787 67.3986 211.787 64.2306C211.787 61.0266 210.941 58.6146 209.249 56.9946C207.593 55.3386 205.487 54.5106 202.931 54.5106C201.167 54.5106 199.565 54.9066 198.125 55.6986C196.685 56.4546 195.443 57.4086 194.399 58.5606V69.9006C195.443 71.0526 196.685 72.0246 198.125 72.8166C199.565 73.5726 201.167 73.9506 202.931 73.9506ZM236.943 78.5406C232.551 78.5406 229.113 77.2986 226.629 74.8146C224.181 72.2946 222.957 68.7666 222.957 64.2306C222.957 61.7826 223.407 59.4786 224.307 57.3186C225.207 55.1226 226.611 53.3406 228.519 51.9726C230.427 50.6046 232.875 49.9206 235.863 49.9206C238.635 49.9206 240.975 50.5686 242.883 51.8646C244.791 53.1246 246.231 54.7806 247.203 56.8326C248.211 58.8846 248.715 61.1166 248.715 63.5286C248.715 64.2126 248.481 64.7886 248.013 65.2566C247.581 65.7246 246.987 65.9586 246.231 65.9586H227.925C228.213 68.3706 229.131 70.3146 230.679 71.7906C232.227 73.2306 234.459 73.9506 237.375 73.9506C238.995 73.9506 240.363 73.8066 241.479 73.5186C242.595 73.1946 243.657 72.7806 244.665 72.2766C244.953 72.1326 245.277 72.0606 245.637 72.0606C246.213 72.0606 246.717 72.2586 247.149 72.6546C247.581 73.0506 247.797 73.5546 247.797 74.1666C247.797 74.5986 247.653 74.9946 247.365 75.3546C247.113 75.6786 246.789 75.9486 246.393 76.1646C245.205 76.8486 243.909 77.4246 242.505 77.8926C241.137 78.3246 239.283 78.5406 236.943 78.5406ZM227.925 61.9626H243.855C243.747 60.0906 243.261 58.5786 242.397 57.4266C241.569 56.2746 240.561 55.4286 239.373 54.8886C238.185 54.3486 237.015 54.0786 235.863 54.0786C234.711 54.0786 233.541 54.3486 232.353 54.8886C231.165 55.4286 230.157 56.2746 229.329 57.4266C228.501 58.5786 228.033 60.0906 227.925 61.9626ZM263.317 78.5406C261.769 78.5406 260.311 78.2166 258.943 77.5686C257.611 76.9206 256.531 76.0026 255.703 74.8146C254.911 73.5906 254.515 72.1326 254.515 70.4406C254.515 67.8846 255.523 65.7966 257.539 64.1766C259.591 62.5206 262.723 61.6926 266.935 61.6926H273.469V61.2606C273.469 58.8486 272.875 57.1386 271.687 56.1306C270.499 55.0866 268.681 54.5646 266.233 54.5646C264.721 54.5646 263.389 54.7086 262.237 54.9966C261.121 55.2486 260.059 55.5366 259.051 55.8606C258.763 55.9326 258.529 55.9686 258.349 55.9686C257.809 55.9686 257.341 55.7706 256.945 55.3746C256.549 54.9786 256.351 54.4926 256.351 53.9166C256.351 52.9446 256.819 52.2606 257.755 51.8646C259.015 51.3246 260.401 50.8746 261.913 50.5146C263.461 50.1186 265.189 49.9206 267.097 49.9206C269.725 49.9206 271.867 50.4426 273.523 51.4866C275.179 52.5306 276.403 53.8626 277.195 55.4826C277.987 57.1026 278.383 58.7946 278.383 60.5586V75.8406C278.383 76.5246 278.131 77.1006 277.627 77.5686C277.159 78.0366 276.583 78.2706 275.899 78.2706C275.215 78.2706 274.639 78.0366 274.171 77.5686C273.703 77.1006 273.469 76.5246 273.469 75.8406V74.4366C272.497 75.4446 271.201 76.3806 269.581 77.2446C267.961 78.1086 265.873 78.5406 263.317 78.5406ZM265.153 74.2206C266.845 74.2206 268.429 73.8066 269.905 72.9786C271.381 72.1506 272.569 71.2146 273.469 70.1706V65.6346H267.583C265.063 65.6346 263.065 65.9586 261.589 66.6066C260.149 67.2546 259.429 68.3526 259.429 69.9006C259.429 71.0526 259.825 72.0606 260.617 72.9246C261.445 73.7886 262.957 74.2206 265.153 74.2206ZM290.13 78.2706C289.446 78.2706 288.87 78.0366 288.402 77.5686C287.934 77.1006 287.7 76.5246 287.7 75.8406V52.6746C287.7 51.9546 287.934 51.3606 288.402 50.8926C288.87 50.4246 289.446 50.1906 290.13 50.1906C290.814 50.1906 291.39 50.4246 291.858 50.8926C292.362 51.3606 292.614 51.9546 292.614 52.6746V54.8886C293.766 53.6286 295.116 52.4946 296.664 51.4866C298.248 50.4426 300.246 49.9206 302.658 49.9206C304.71 49.9206 306.456 50.4066 307.896 51.3786C309.336 52.3146 310.434 53.5926 311.19 55.2126C311.946 56.7966 312.324 58.5606 312.324 60.5046V75.8406C312.324 76.5246 312.072 77.1006 311.568 77.5686C311.1 78.0366 310.524 78.2706 309.84 78.2706C309.156 78.2706 308.58 78.0366 308.112 77.5686C307.644 77.1006 307.41 76.5246 307.41 75.8406V61.0446C307.41 58.9926 306.942 57.3906 306.006 56.2386C305.106 55.0506 303.594 54.4566 301.47 54.4566C299.526 54.4566 297.834 54.9786 296.394 56.0226C294.954 57.0666 293.694 58.2726 292.614 59.6406V75.8406C292.614 76.5246 292.362 77.1006 291.858 77.5686C291.39 78.0366 290.814 78.2706 290.13 78.2706Z" fill="#0A6365"/>
<path d="M198.557 77.4606L198.772 77.0092L198.557 77.4606ZM194.399 74.4366L194.758 74.0881L193.899 73.205V74.4366H194.399ZM193.697 77.5686L194.051 77.9222L193.697 77.5686ZM190.187 77.5686L190.541 77.2151L190.541 77.2151L190.187 77.5686ZM190.187 39.0126L189.834 38.6591L189.834 38.6591L190.187 39.0126ZM193.697 39.0126L194.051 38.6591L194.051 38.6591L193.697 39.0126ZM194.399 54.0246H193.899V55.2562L194.758 54.3731L194.399 54.0246ZM198.557 51.0006L198.772 51.452L198.772 51.452L198.557 51.0006ZM209.897 51.5946L209.652 52.0302L209.652 52.0302L209.897 51.5946ZM214.757 56.4546L214.327 56.7097L214.33 56.715L214.757 56.4546ZM214.757 72.0066L214.33 71.7462L214.327 71.7515L214.757 72.0066ZM209.897 76.8666L209.652 76.431L209.652 76.431L209.897 76.8666ZM209.249 71.4666L208.899 71.1093L208.896 71.1131L209.249 71.4666ZM209.249 56.9946L208.895 57.3482L208.903 57.3558L209.249 56.9946ZM198.125 55.6986L198.358 56.1414L198.366 56.1367L198.125 55.6986ZM194.399 58.5606L194.029 58.2248L193.899 58.3678V58.5606H194.399ZM194.399 69.9006H193.899V70.0935L194.029 70.2364L194.399 69.9006ZM198.125 72.8166L197.884 73.2548L197.893 73.2593L198.125 72.8166ZM203.633 78.0406C201.827 78.0406 200.209 77.6936 198.772 77.0092L198.342 77.912C199.929 78.6676 201.696 79.0406 203.633 79.0406V78.0406ZM198.772 77.0092C197.318 76.3166 195.979 75.3449 194.758 74.0881L194.041 74.7851C195.339 76.1203 196.772 77.1646 198.342 77.912L198.772 77.0092ZM193.899 74.4366V75.8406H194.899V74.4366H193.899ZM193.899 75.8406C193.899 76.397 193.714 76.8443 193.344 77.2151L194.051 77.9222C194.616 77.3569 194.899 76.6523 194.899 75.8406H193.899ZM193.344 77.2151C192.978 77.5806 192.515 77.7706 191.915 77.7706V78.7706C192.755 78.7706 193.48 78.4926 194.051 77.9222L193.344 77.2151ZM191.915 77.7706C191.359 77.7706 190.911 77.5858 190.541 77.2151L189.834 77.9222C190.399 78.4874 191.103 78.7706 191.915 78.7706V77.7706ZM190.541 77.2151C190.17 76.8443 189.985 76.397 189.985 75.8406H188.985C188.985 76.6523 189.268 77.3569 189.834 77.9222L190.541 77.2151ZM189.985 75.8406V40.7946H188.985V75.8406H189.985ZM189.985 40.7946C189.985 40.1944 190.175 39.7317 190.541 39.3662L189.834 38.6591C189.263 39.2295 188.985 39.9548 188.985 40.7946H189.985ZM190.541 39.3662C190.911 38.9954 191.359 38.8106 191.915 38.8106V37.8106C191.103 37.8106 190.399 38.0938 189.834 38.6591L190.541 39.3662ZM191.915 38.8106C192.515 38.8106 192.978 39.0006 193.344 39.3662L194.051 38.6591C193.48 38.0886 192.755 37.8106 191.915 37.8106V38.8106ZM193.344 39.3662C193.709 39.7317 193.899 40.1944 193.899 40.7946H194.899C194.899 39.9548 194.621 39.2295 194.051 38.6591L193.344 39.3662ZM193.899 40.7946V54.0246H194.899V40.7946H193.899ZM194.758 54.3731C195.979 53.1163 197.318 52.1446 198.772 51.452L198.342 50.5492C196.772 51.2966 195.339 52.3409 194.041 53.6761L194.758 54.3731ZM198.772 51.452C200.209 50.7676 201.827 50.4206 203.633 50.4206V49.4206C201.696 49.4206 199.929 49.7936 198.342 50.5492L198.772 51.452ZM203.633 50.4206C205.74 50.4206 207.744 50.9549 209.652 52.0302L210.143 51.159C208.09 50.0023 205.918 49.4206 203.633 49.4206V50.4206ZM209.652 52.0302C211.549 53.0995 213.108 54.6543 214.327 56.7097L215.187 56.1995C213.886 54.007 212.205 52.3217 210.143 51.159L209.652 52.0302ZM214.33 56.715C215.568 58.7444 216.201 61.2414 216.201 64.2306H217.201C217.201 61.0998 216.538 58.4128 215.184 56.1942L214.33 56.715ZM216.201 64.2306C216.201 67.2198 215.568 69.7168 214.33 71.7462L215.184 72.267C216.538 70.0484 217.201 67.3614 217.201 64.2306H216.201ZM214.327 71.7515C213.108 73.807 211.549 75.3617 209.652 76.431L210.143 77.3022C212.205 76.1395 213.886 74.4543 215.187 72.2617L214.327 71.7515ZM209.652 76.431C207.744 77.5063 205.74 78.0406 203.633 78.0406V79.0406C205.918 79.0406 208.09 78.4589 210.143 77.3022L209.652 76.431ZM202.931 74.4506C205.606 74.4506 207.844 73.579 209.603 71.8202L208.896 71.1131C207.342 72.6663 205.368 73.4506 202.931 73.4506V74.4506ZM209.599 71.8239C211.416 70.0454 212.287 67.486 212.287 64.2306H211.287C211.287 67.3112 210.466 69.5758 208.899 71.1093L209.599 71.8239ZM212.287 64.2306C212.287 60.9419 211.417 58.3784 209.595 56.6335L208.903 57.3558C210.465 58.8508 211.287 61.1113 211.287 64.2306H212.287ZM209.603 56.6411C207.844 54.8823 205.606 54.0106 202.931 54.0106V55.0106C205.368 55.0106 207.342 55.795 208.896 57.3482L209.603 56.6411ZM202.931 54.0106C201.089 54.0106 199.403 54.4249 197.884 55.2605L198.366 56.1367C199.727 55.3883 201.245 55.0106 202.931 55.0106V54.0106ZM197.893 55.2559C196.403 56.0379 195.114 57.0274 194.029 58.2248L194.77 58.8964C195.772 57.7898 196.967 56.8713 198.357 56.1413L197.893 55.2559ZM193.899 58.5606V69.9006H194.899V58.5606H193.899ZM194.029 70.2364C195.112 71.4317 196.398 72.4375 197.884 73.2547L198.366 72.3785C196.972 71.6117 195.774 70.6735 194.77 69.5649L194.029 70.2364ZM197.893 73.2593C199.41 74.0561 201.093 74.4506 202.931 74.4506V73.4506C201.241 73.4506 199.72 73.0891 198.357 72.3739L197.893 73.2593ZM226.629 74.8146L226.271 75.163L226.276 75.1682L226.629 74.8146ZM224.307 57.3186L224.769 57.5109L224.77 57.5082L224.307 57.3186ZM228.519 51.9726L228.811 52.379L228.811 52.379L228.519 51.9726ZM242.883 51.8646L242.602 52.2783L242.608 52.2818L242.883 51.8646ZM247.203 56.8326L246.752 57.0467L246.755 57.0531L247.203 56.8326ZM248.013 65.2566L247.66 64.9031L247.653 64.9101L247.646 64.9175L248.013 65.2566ZM227.925 65.9586V65.4586H227.362L227.429 66.0179L227.925 65.9586ZM230.679 71.7906L230.334 72.1525L230.339 72.1567L230.679 71.7906ZM241.479 73.5186L241.604 74.0027L241.612 74.0009L241.619 73.9988L241.479 73.5186ZM244.665 72.2766L244.442 71.8294L244.442 71.8294L244.665 72.2766ZM247.149 72.6546L247.487 72.286L247.149 72.6546ZM247.365 75.3546L246.975 75.0422L246.971 75.0476L247.365 75.3546ZM246.393 76.1646L246.154 75.7255L246.144 75.7313L246.393 76.1646ZM242.505 77.8926L242.656 78.3695L242.664 78.367L242.505 77.8926ZM227.925 61.9626L227.426 61.9338L227.396 62.4626H227.925V61.9626ZM243.855 61.9626V62.4626H244.385L244.355 61.9338L243.855 61.9626ZM242.397 57.4266L241.991 57.7185L241.997 57.7266L242.397 57.4266ZM239.373 54.8886L239.58 54.4334L239.58 54.4334L239.373 54.8886ZM232.353 54.8886L232.147 54.4334L232.147 54.4334L232.353 54.8886ZM236.943 78.0406C232.649 78.0406 229.351 76.8291 226.983 74.4611L226.276 75.1682C228.876 77.7681 232.454 79.0406 236.943 79.0406V78.0406ZM226.988 74.4662C224.655 72.0644 223.457 68.6759 223.457 64.2306H222.457C222.457 68.8573 223.708 72.5248 226.271 75.163L226.988 74.4662ZM223.457 64.2306C223.457 61.8455 223.896 59.6072 224.769 57.5109L223.846 57.1263C222.919 59.35 222.457 61.7197 222.457 64.2306H223.457ZM224.77 57.5082C225.635 55.3981 226.98 53.6916 228.811 52.379L228.228 51.5663C226.243 52.9896 224.78 54.8471 223.845 57.129L224.77 57.5082ZM228.811 52.379C230.613 51.0866 232.951 50.4206 235.863 50.4206V49.4206C232.8 49.4206 230.242 50.1226 228.228 51.5663L228.811 52.379ZM235.863 50.4206C238.556 50.4206 240.793 51.049 242.603 52.2782L243.164 51.451C241.158 50.0882 238.715 49.4206 235.863 49.4206V50.4206ZM242.608 52.2818C244.44 53.4919 245.819 55.0778 246.752 57.0467L247.655 56.6186C246.644 54.4834 245.143 52.7574 243.159 51.4474L242.608 52.2818ZM246.755 57.0531C247.727 59.0327 248.215 61.1887 248.215 63.5286H249.215C249.215 61.0445 248.696 58.7365 247.652 56.6122L246.755 57.0531ZM248.215 63.5286C248.215 64.085 248.031 64.5323 247.66 64.9031L248.367 65.6102C248.932 65.0449 249.215 64.3403 249.215 63.5286H248.215ZM247.646 64.9175C247.326 65.2638 246.876 65.4586 246.231 65.4586V66.4586C247.099 66.4586 247.837 66.1854 248.381 65.5957L247.646 64.9175ZM246.231 65.4586H227.925V66.4586H246.231V65.4586ZM227.429 66.0179C227.729 68.5287 228.691 70.5855 230.334 72.1525L231.025 71.4287C229.572 70.0438 228.698 68.2125 228.422 65.8993L227.429 66.0179ZM230.339 72.1567C232.01 73.7109 234.381 74.4506 237.375 74.4506V73.4506C234.537 73.4506 232.445 72.7504 231.02 71.4245L230.339 72.1567ZM237.375 74.4506C239.022 74.4506 240.435 74.3046 241.604 74.0027L241.355 73.0345C240.292 73.3086 238.969 73.4506 237.375 73.4506V74.4506ZM241.619 73.9988C242.763 73.6666 243.853 73.2417 244.889 72.7238L244.442 71.8294C243.462 72.3195 242.428 72.7226 241.34 73.0384L241.619 73.9988ZM244.889 72.7238C245.1 72.6185 245.346 72.5606 245.637 72.5606V71.5606C245.209 71.5606 244.807 71.6468 244.442 71.8294L244.889 72.7238ZM245.637 72.5606C246.086 72.5606 246.47 72.7101 246.812 73.0232L247.487 72.286C246.965 71.8071 246.341 71.5606 245.637 71.5606V72.5606ZM246.812 73.0232C247.135 73.3198 247.297 73.6877 247.297 74.1666H248.297C248.297 73.4215 248.028 72.7814 247.487 72.286L246.812 73.0232ZM247.297 74.1666C247.297 74.4772 247.197 74.7645 246.975 75.0423L247.756 75.667C248.11 75.2247 248.297 74.7201 248.297 74.1666H247.297ZM246.971 75.0476C246.765 75.3123 246.496 75.5393 246.154 75.7257L246.633 76.6036C247.083 76.358 247.462 76.0449 247.76 75.6616L246.971 75.0476ZM246.144 75.7313C244.987 76.3973 243.722 76.96 242.347 77.4183L242.664 78.367C244.097 77.8892 245.424 77.2999 246.643 76.5979L246.144 75.7313ZM242.355 77.4158C241.057 77.8258 239.26 78.0406 236.943 78.0406V79.0406C239.307 79.0406 241.218 78.8234 242.656 78.3694L242.355 77.4158ZM227.925 62.4626H243.855V61.4626H227.925V62.4626ZM244.355 61.9338C244.243 59.9929 243.736 58.3779 242.797 57.1266L241.997 57.7266C242.787 58.7793 243.252 60.1883 243.356 61.9914L244.355 61.9338ZM242.803 57.1348C241.929 55.9182 240.855 55.0127 239.58 54.4334L239.167 55.3438C240.268 55.8445 241.21 56.631 241.991 57.7184L242.803 57.1348ZM239.58 54.4334C238.336 53.8678 237.096 53.5786 235.863 53.5786V54.5786C236.935 54.5786 238.035 54.8294 239.167 55.3438L239.58 54.4334ZM235.863 53.5786C234.631 53.5786 233.391 53.8678 232.147 54.4334L232.56 55.3438C233.692 54.8294 234.792 54.5786 235.863 54.5786V53.5786ZM232.147 54.4334C230.872 55.0127 229.798 55.9182 228.923 57.1348L229.735 57.7184C230.517 56.631 231.459 55.8445 232.56 55.3438L232.147 54.4334ZM228.923 57.1348C228.025 58.385 227.538 59.9969 227.426 61.9338L228.425 61.9914C228.529 60.1843 228.978 58.7723 229.735 57.7184L228.923 57.1348ZM258.943 77.5686L258.725 78.0183L258.729 78.0205L258.943 77.5686ZM255.703 74.8146L255.284 75.0862L255.288 75.0935L255.293 75.1005L255.703 74.8146ZM257.539 64.1766L257.853 64.5664L257.853 64.5657L257.539 64.1766ZM273.469 61.6926V62.1926H273.969V61.6926H273.469ZM271.687 56.1306L271.357 56.5062L271.364 56.5119L271.687 56.1306ZM262.237 54.9966L262.348 55.4845L262.359 55.4817L262.237 54.9966ZM259.051 55.8606L259.173 56.3457L259.189 56.3417L259.204 56.3366L259.051 55.8606ZM256.945 55.3746L257.299 55.0211L257.299 55.0211L256.945 55.3746ZM257.755 51.8646L257.95 52.3251L257.952 52.3242L257.755 51.8646ZM261.913 50.5146L262.029 51.0011L262.037 50.999L261.913 50.5146ZM273.523 51.4866L273.79 51.0636L273.523 51.4866ZM277.195 55.4826L276.746 55.7022L276.746 55.7022L277.195 55.4826ZM277.627 77.5686L277.287 77.2022L277.28 77.2085L277.274 77.2151L277.627 77.5686ZM274.171 77.5686L274.525 77.2151L274.525 77.2151L274.171 77.5686ZM273.469 74.4366H273.969V73.1978L273.109 74.0895L273.469 74.4366ZM269.581 77.2446L269.817 77.6858L269.817 77.6858L269.581 77.2446ZM269.905 72.9786L270.15 73.4147L270.15 73.4147L269.905 72.9786ZM273.469 70.1706L273.848 70.4971L273.969 70.3564V70.1706H273.469ZM273.469 65.6346H273.969V65.1346H273.469V65.6346ZM261.589 66.6066L261.388 66.1488L261.384 66.1506L261.589 66.6066ZM260.617 72.9246L260.249 73.2626L260.256 73.2706L260.617 72.9246ZM263.317 78.0406C261.842 78.0406 260.457 77.7323 259.157 77.1167L258.729 78.0205C260.166 78.7009 261.697 79.0406 263.317 79.0406V78.0406ZM259.162 77.119C257.905 76.5074 256.892 75.645 256.114 74.5287L255.293 75.1005C256.171 76.3602 257.318 77.3338 258.725 78.0182L259.162 77.119ZM256.123 74.543C255.392 73.4122 255.015 72.052 255.015 70.4406H254.015C254.015 72.2132 254.431 73.769 255.284 75.0862L256.123 74.543ZM255.015 70.4406C255.015 68.0382 255.953 66.0928 257.853 64.5664L257.226 63.7869C255.094 65.5005 254.015 67.731 254.015 70.4406H255.015ZM257.853 64.5657C259.777 63.0133 262.774 62.1926 266.935 62.1926V61.1926C262.673 61.1926 259.406 62.0279 257.225 63.7875L257.853 64.5657ZM266.935 62.1926H273.469V61.1926H266.935V62.1926ZM273.969 61.6926V61.2606H272.969V61.6926H273.969ZM273.969 61.2606C273.969 58.7824 273.36 56.8944 272.011 55.7494L271.364 56.5119C272.39 57.3828 272.969 58.9148 272.969 61.2606H273.969ZM272.017 55.755C270.7 54.5969 268.739 54.0646 266.233 54.0646V55.0646C268.624 55.0646 270.299 55.5763 271.357 56.5062L272.017 55.755ZM266.233 54.0646C264.691 54.0646 263.317 54.2114 262.116 54.5115L262.359 55.4817C263.462 55.2059 264.752 55.0646 266.233 55.0646V54.0646ZM262.127 54.5089C260.998 54.7639 259.922 55.0557 258.898 55.3846L259.204 56.3366C260.197 56.0175 261.245 55.7333 262.348 55.4843L262.127 54.5089ZM258.93 55.3755C258.66 55.4431 258.471 55.4686 258.349 55.4686V56.4686C258.588 56.4686 258.867 56.4221 259.173 56.3457L258.93 55.3755ZM258.349 55.4686C257.947 55.4686 257.605 55.3272 257.299 55.0211L256.592 55.7282C257.078 56.214 257.671 56.4686 258.349 56.4686V55.4686ZM257.299 55.0211C257 54.7218 256.851 54.3642 256.851 53.9166H255.851C255.851 54.621 256.099 55.2354 256.592 55.7282L257.299 55.0211ZM256.851 53.9166C256.851 53.5135 256.947 53.2022 257.115 52.957C257.284 52.7102 257.55 52.4943 257.95 52.3251L257.561 51.4041C257.024 51.631 256.589 51.955 256.29 52.3923C255.99 52.831 255.851 53.3477 255.851 53.9166H256.851ZM257.952 52.3242C259.183 51.7968 260.541 51.3553 262.029 51.001L261.798 50.0282C260.261 50.394 258.848 50.8524 257.558 51.405L257.952 52.3242ZM262.037 50.999C263.538 50.6151 265.223 50.4206 267.097 50.4206V49.4206C265.155 49.4206 263.385 49.6221 261.789 50.0302L262.037 50.999ZM267.097 50.4206C269.662 50.4206 271.704 50.9304 273.257 51.9096L273.79 51.0636C272.031 49.9548 269.788 49.4206 267.097 49.4206V50.4206ZM273.257 51.9096C274.841 52.9084 275.998 54.1727 276.746 55.7022L277.645 55.263C276.808 53.5525 275.518 52.1528 273.79 51.0636L273.257 51.9096ZM276.746 55.7022C277.506 57.2554 277.883 58.8725 277.883 60.5586H278.883C278.883 58.7168 278.469 56.9498 277.645 55.263L276.746 55.7022ZM277.883 60.5586V75.8406H278.883V60.5586H277.883ZM277.883 75.8406C277.883 76.3847 277.69 76.8282 277.287 77.2022L277.968 77.935C278.573 77.373 278.883 76.6645 278.883 75.8406H277.883ZM277.274 77.2151C276.903 77.5858 276.456 77.7706 275.899 77.7706V78.7706C276.711 78.7706 277.416 78.4874 277.981 77.9222L277.274 77.2151ZM275.899 77.7706C275.343 77.7706 274.896 77.5858 274.525 77.2151L273.818 77.9222C274.383 78.4874 275.088 78.7706 275.899 78.7706V77.7706ZM274.525 77.2151C274.154 76.8443 273.969 76.397 273.969 75.8406H272.969C272.969 76.6523 273.253 77.3569 273.818 77.9222L274.525 77.2151ZM273.969 75.8406V74.4366H272.969V75.8406H273.969ZM273.109 74.0895C272.183 75.0502 270.933 75.9569 269.346 76.8034L269.817 77.6858C271.469 76.8044 272.812 75.839 273.829 74.7837L273.109 74.0895ZM269.346 76.8034C267.821 77.6167 265.822 78.0406 263.317 78.0406V79.0406C265.925 79.0406 268.101 78.6006 269.817 77.6858L269.346 76.8034ZM265.153 74.7206C266.931 74.7206 268.599 74.2846 270.15 73.4147L269.661 72.5425C268.259 73.3286 266.76 73.7206 265.153 73.7206V74.7206ZM270.15 73.4147C271.666 72.5645 272.903 71.5939 273.848 70.4971L273.091 69.8441C272.236 70.8353 271.097 71.7367 269.661 72.5425L270.15 73.4147ZM273.969 70.1706V65.6346H272.969V70.1706H273.969ZM273.469 65.1346H267.583V66.1346H273.469V65.1346ZM267.583 65.1346C265.029 65.1346 262.953 65.4617 261.388 66.1488L261.79 67.0644C263.177 66.4555 265.098 66.1346 267.583 66.1346V65.1346ZM261.384 66.1506C260.595 66.5057 259.973 66.9984 259.551 67.6419C259.129 68.2861 258.929 69.047 258.929 69.9006H259.929C259.929 69.2063 260.09 68.6441 260.388 68.1903C260.686 67.7358 261.144 67.3555 261.795 67.0626L261.384 66.1506ZM258.929 69.9006C258.929 71.1801 259.374 72.308 260.249 73.2625L260.986 72.5867C260.277 71.8132 259.929 70.9251 259.929 69.9006H258.929ZM260.256 73.2706C261.232 74.2887 262.925 74.7206 265.153 74.7206V73.7206C262.99 73.7206 261.659 73.2886 260.978 72.5787L260.256 73.2706ZM288.402 77.5686L288.755 77.2151L288.755 77.2151L288.402 77.5686ZM288.402 50.8926L288.755 51.2462L288.755 51.2462L288.402 50.8926ZM291.858 50.8926L291.504 51.2462L291.511 51.2527L291.517 51.259L291.858 50.8926ZM292.614 54.8886H292.114V56.1765L292.983 55.226L292.614 54.8886ZM296.664 51.4866L296.937 51.9056L296.939 51.9041L296.664 51.4866ZM307.896 51.3786L307.616 51.7931L307.623 51.7978L307.896 51.3786ZM311.19 55.2126L310.737 55.4241L310.738 55.428L311.19 55.2126ZM311.568 77.5686L311.227 77.2022L311.221 77.2085L311.214 77.2151L311.568 77.5686ZM308.112 77.5686L307.758 77.9222L307.758 77.9222L308.112 77.5686ZM306.006 56.2386L305.607 56.5405L305.612 56.5473L305.618 56.5539L306.006 56.2386ZM296.394 56.0226L296.687 56.4274L296.687 56.4274L296.394 56.0226ZM292.614 59.6406L292.221 59.3308L292.114 59.467V59.6406H292.614ZM291.858 77.5686L291.517 77.2022L291.511 77.2085L291.504 77.2151L291.858 77.5686ZM290.13 77.7706C289.573 77.7706 289.126 77.5858 288.755 77.2151L288.048 77.9222C288.613 78.4874 289.318 78.7706 290.13 78.7706V77.7706ZM288.755 77.2151C288.384 76.8443 288.2 76.397 288.2 75.8406H287.2C287.2 76.6523 287.483 77.3569 288.048 77.9222L288.755 77.2151ZM288.2 75.8406V52.6746H287.2V75.8406H288.2ZM288.2 52.6746C288.2 52.0744 288.39 51.6117 288.755 51.2462L288.048 50.5391C287.478 51.1095 287.2 51.8348 287.2 52.6746H288.2ZM288.755 51.2462C289.126 50.8754 289.573 50.6906 290.13 50.6906V49.6906C289.318 49.6906 288.613 49.9738 288.048 50.5391L288.755 51.2462ZM290.13 50.6906C290.686 50.6906 291.133 50.8754 291.504 51.2462L292.211 50.5391C291.646 49.9738 290.941 49.6906 290.13 49.6906V50.6906ZM291.517 51.259C291.914 51.6275 292.114 52.0863 292.114 52.6746H293.114C293.114 51.8229 292.809 51.0937 292.198 50.5262L291.517 51.259ZM292.114 52.6746V54.8886H293.114V52.6746H292.114ZM292.983 55.226C294.104 53.9996 295.421 52.8924 296.936 51.9056L296.391 51.0676C294.81 52.0968 293.427 53.2576 292.245 54.5512L292.983 55.226ZM296.939 51.9041C298.422 50.9268 300.317 50.4206 302.658 50.4206V49.4206C300.174 49.4206 298.074 49.9584 296.389 51.0691L296.939 51.9041ZM302.658 50.4206C304.628 50.4206 306.273 50.8863 307.616 51.793L308.175 50.9642C306.639 49.9269 304.791 49.4206 302.658 49.4206V50.4206ZM307.623 51.7978C308.981 52.6807 310.018 53.8852 310.737 55.4241L311.643 55.0012C310.849 53.3 309.69 51.9485 308.168 50.9594L307.623 51.7978ZM310.738 55.428C311.459 56.9378 311.824 58.627 311.824 60.5046H312.824C312.824 58.4942 312.432 56.6554 311.641 54.9972L310.738 55.428ZM311.824 60.5046V75.8406H312.824V60.5046H311.824ZM311.824 75.8406C311.824 76.3847 311.63 76.8282 311.227 77.2022L311.908 77.935C312.513 77.373 312.824 76.6645 312.824 75.8406H311.824ZM311.214 77.2151C310.843 77.5858 310.396 77.7706 309.84 77.7706V78.7706C310.651 78.7706 311.356 78.4874 311.921 77.9222L311.214 77.2151ZM309.84 77.7706C309.283 77.7706 308.836 77.5858 308.465 77.2151L307.758 77.9222C308.323 78.4874 309.028 78.7706 309.84 78.7706V77.7706ZM308.465 77.2151C308.094 76.8443 307.91 76.397 307.91 75.8406H306.91C306.91 76.6523 307.193 77.3569 307.758 77.9222L308.465 77.2151ZM307.91 75.8406V61.0446H306.91V75.8406H307.91ZM307.91 61.0446C307.91 58.9213 307.425 57.1932 306.394 55.9233L305.618 56.5539C306.458 57.588 306.91 59.064 306.91 61.0446H307.91ZM306.404 55.9367C305.374 54.5769 303.68 53.9566 301.47 53.9566V54.9566C303.507 54.9566 304.837 55.5243 305.607 56.5405L306.404 55.9367ZM301.47 53.9566C299.431 53.9566 297.634 54.5061 296.1 55.6178L296.687 56.4274C298.034 55.4511 299.621 54.9566 301.47 54.9566V53.9566ZM296.1 55.6178C294.624 56.6882 293.33 57.926 292.221 59.3308L293.006 59.9504C294.057 58.6192 295.284 57.445 296.687 56.4274L296.1 55.6178ZM292.114 59.6406V75.8406H293.114V59.6406H292.114ZM292.114 75.8406C292.114 76.3847 291.92 76.8282 291.517 77.2022L292.198 77.935C292.803 77.373 293.114 76.6645 293.114 75.8406H292.114ZM291.504 77.2151C291.133 77.5858 290.686 77.7706 290.13 77.7706V78.7706C290.941 78.7706 291.646 78.4874 292.211 77.9222L291.504 77.2151Z" fill="#0A6365" mask="url(#path-20-outside-2_3927_86172)"/>
</svg>
