<svg width="650" height="763" viewBox="0 0 650 763" fill="none" xmlns="http://www.w3.org/2000/svg">
<path d="M423.215 696.885C423.215 696.885 315.227 783.154 211.537 741.797C107.846 700.439 3.93753 617.613 21.1795 449.153C38.4214 280.693 121.573 215.313 121.573 215.313L216.332 201.984C216.332 201.984 265.518 335.084 273.469 355.278C281.419 375.471 318.194 473.373 320.973 501.432C323.752 529.491 423.215 696.885 423.215 696.885Z" fill="#14C8C8"/>
<path d="M595.928 75.5807C594.119 82.3493 584.508 82.3493 582.694 75.5807C578.922 61.6017 568.041 50.6897 554.151 46.9576L554.049 46.9373C547.289 45.1144 547.289 35.5378 554.049 33.72L554.151 33.6946C568.036 29.9624 578.922 19.0555 582.694 5.07651C584.508 -1.69209 594.119 -1.69209 595.928 5.07651C599.699 19.0504 610.581 29.9624 624.471 33.6946L624.567 33.72C631.327 35.5378 631.327 45.1144 624.567 46.9373L624.471 46.9576C610.525 50.7456 599.643 61.6576 595.928 75.5807Z" fill="#00A1A1"/>
<path d="M529.715 193.714L537.02 166.402C538.828 159.633 548.435 159.633 550.249 166.402L557.554 193.714C565.494 223.139 588.38 246.105 617.601 253.95L644.932 261.303C651.689 263.115 651.689 272.702 644.932 274.52L617.601 281.872C588.268 289.834 565.377 312.8 557.554 342.103L550.249 369.42C548.44 376.189 538.834 376.189 537.02 369.42L529.715 342.103C521.774 312.683 498.883 289.727 469.668 281.872L442.337 274.52C435.58 272.707 435.58 263.12 442.337 261.303L469.668 253.95C498.883 246.105 521.774 223.139 529.715 193.714Z" fill="#00A1A1"/>
<path d="M406.413 82.7533C411.462 101.536 426.239 116.256 445.171 121.359L453.928 123.7C460.7 125.508 460.7 135.11 453.928 136.923L445.171 139.264C426.239 144.372 411.462 159.087 406.413 177.875L404.036 186.695C402.217 193.443 392.632 193.443 390.813 186.695L388.436 177.875C383.316 159.016 368.539 144.291 349.678 139.264L340.921 136.923C334.149 135.11 334.149 125.508 340.921 123.7L349.678 121.359C368.61 116.256 383.387 101.536 388.436 82.7533L390.813 73.9333C392.632 67.185 402.217 67.185 404.036 73.9333L406.413 82.7533Z" fill="#00A1A1"/>
<path d="M439.026 365.515C461.555 365.515 465.354 393.884 456.175 410.509C441.693 436.7 419.515 467.217 391.922 480.719C386.274 483.476 379.726 484.817 373.077 484.817C352.22 484.817 330.133 471.736 330.636 448.501C331.139 425.402 370.446 414.231 385.446 399.825C401.355 384.541 412.272 367.561 436.766 365.622C437.533 365.545 438.3 365.515 439.026 365.515ZM439.026 344.899C437.746 344.899 436.426 344.95 435.125 345.052C407.487 347.245 391.826 363.59 379.238 376.716C376.485 379.59 373.869 382.317 371.136 384.958C367.936 388.03 361.002 392.021 354.282 395.895C335.848 406.508 310.592 421.055 310.002 448.049C309.682 462.637 314.904 475.859 325.099 486.279C336.848 498.273 354.78 505.437 373.077 505.437C383.069 505.437 392.71 503.289 401 499.232C434.673 482.765 459.416 447.312 474.239 420.471C483.667 403.405 483.799 380.57 474.574 364.946C467.061 352.206 454.098 344.899 439.026 344.899Z" fill="#00A1A1"/>
<path d="M373.117 511.828C353.144 511.828 333.506 503.948 320.578 490.751C309.149 479.067 303.297 464.255 303.657 447.91C304.328 417.316 332.495 401.098 351.137 390.364C357.258 386.835 364.126 382.874 366.757 380.35C369.414 377.786 371.974 375.12 374.666 372.307C387.325 359.105 404.621 341.074 434.668 338.687C454.021 337.195 470.713 345.751 480.121 361.72C490.443 379.188 490.336 404.622 479.877 423.567C464.613 451.21 439.031 487.77 403.854 504.978C394.675 509.462 384.054 511.828 373.117 511.828ZM439.067 351.29C437.949 351.29 436.796 351.331 435.653 351.417C410.473 353.418 396.362 368.128 383.917 381.112C381.082 384.072 378.405 386.85 375.616 389.551C371.847 393.167 364.919 397.163 357.578 401.393C339.434 411.843 316.936 424.791 316.428 448.194C316.143 461.02 320.735 472.654 329.706 481.824C340.277 492.619 356.507 499.068 373.117 499.068C382.118 499.068 390.805 497.149 398.236 493.518C430.421 477.772 454.316 443.436 468.692 417.403C477.078 402.22 477.256 381.99 469.118 368.209C462.779 357.455 451.827 351.29 439.067 351.29ZM373.117 491.208C358.584 491.208 344.458 485.642 335.329 476.32C327.877 468.708 324.063 459.045 324.291 448.372C324.703 429.401 344.224 418.159 361.444 408.242C369.236 403.754 376.607 399.509 381.062 395.228C384.033 392.369 386.832 389.45 389.575 386.581C401.609 374.018 414.059 361.024 436.293 359.262C437.192 359.181 438.147 359.141 439.067 359.141C449.109 359.141 457.374 363.777 462.342 372.185C469.032 383.504 468.798 400.925 461.803 413.599C447.946 438.658 425.072 471.633 394.767 486.455C388.412 489.562 380.925 491.208 373.117 491.208ZM439.067 371.906C438.528 371.906 437.954 371.926 437.375 371.982C419.916 373.368 410.128 383.585 398.795 395.411C395.93 398.402 393.009 401.448 389.905 404.434C384.328 409.791 376.307 414.412 367.814 419.302C353.52 427.543 337.31 436.871 337.051 448.646C336.899 455.907 339.383 462.209 344.452 467.383C351.229 474.304 361.942 478.437 373.112 478.437C378.989 478.437 384.536 477.244 389.154 474.984C417.91 460.914 440.006 426.619 450.623 407.425C455.418 398.742 455.733 386.103 451.344 378.67C448.652 374.12 444.639 371.906 439.067 371.906Z" fill="#00A1A1"/>
<path d="M411.434 490.489C389.631 465.03 370.793 443.064 372.638 406.713C373.044 398.838 373.603 390.704 374.131 382.848C378.276 322.902 382.554 260.925 328.837 215.723C326.83 214.048 324.701 212.387 322.517 210.808C304.264 197.566 283.42 190.351 269.135 186.634C257.512 183.618 245.609 182.084 233.747 182.084C199.812 182.084 165.048 195.022 133.862 218.247C132.434 220.116 130.976 221.949 129.589 223.873C96.2381 270.049 75.8821 326.913 70.7207 388.342C65.5999 449.243 75.8719 508.768 100.404 560.418C140.933 645.748 208.27 691.416 306.281 700.027C314.46 700.769 322.725 701.114 330.869 701.114C330.869 701.114 330.879 701.114 330.894 701.114C374.471 701.114 413.675 690.964 444.648 672.09C464.491 636.577 467.113 589.919 449.886 547.313C440.742 524.702 425.842 507.301 411.434 490.489Z" fill="white"/>
<path d="M228.8 188.784C239.549 188.784 250.512 190.124 261.577 193.013C278.519 197.416 296.675 204.778 311.514 215.538C313.48 216.975 315.396 218.452 317.24 220.006C373.898 267.67 360.68 337.654 357.378 402.577C353.999 468.84 413.508 493.492 435.368 547.553C453.946 593.501 449.653 650.67 413.157 686.766C378.049 721.492 327.029 735.004 278.097 735.004C270.132 735.004 262.197 734.643 254.404 733.953C164.231 726.027 97.3109 685.147 56.9544 600.178C8.76435 498.732 19.1278 365.551 85.1847 274.093C118.729 227.673 170.856 188.784 228.8 188.784ZM228.8 168.153C197.496 168.153 166.543 177.745 136.789 196.608C111.322 212.77 87.7044 235.386 68.4507 262.023C33.9973 309.717 12.9758 368.379 7.66197 431.662C2.39896 494.391 12.9859 555.718 38.3205 609.033C59.6469 653.96 89.0252 688.995 125.622 713.165C160.584 736.258 203.287 750.166 252.6 754.492C261.074 755.238 269.659 755.629 278.097 755.629C339.226 755.629 392.349 736.385 427.682 701.426C448.205 681.115 461.246 654.229 465.361 623.621C469.074 596.105 465.229 566.335 454.51 539.825C444.725 515.635 429.256 497.615 414.316 480.163C393.106 455.415 376.347 435.866 377.988 403.623C378.389 395.854 378.943 387.771 379.481 379.941C383.601 320.355 388.26 252.792 330.514 204.25C328.324 202.397 326.008 200.579 323.636 198.853C304.072 184.656 281.907 176.983 266.789 173.053C254.317 169.809 241.526 168.153 228.8 168.153Z" fill="#00A1A1"/>
<path d="M278.136 762.023C269.56 762.023 260.797 761.632 252.075 760.86C201.72 756.443 158.001 742.19 122.14 718.503C84.5523 693.673 54.4221 657.769 32.5928 611.781C6.78573 557.476 -4.02478 495.011 1.33984 431.14C6.74509 366.71 28.1781 306.941 63.3123 258.297C83.0435 231 107.276 207.811 133.403 191.232C164.224 171.683 196.335 161.772 228.838 161.772C242.087 161.772 255.412 163.488 268.427 166.875C284.1 170.952 307.057 178.909 327.428 193.69C329.948 195.523 332.386 197.437 334.682 199.382C394.897 250.006 390.112 319.275 385.89 380.384C385.357 388.178 384.803 396.221 384.402 403.954C382.893 433.653 398.123 451.42 419.2 476.011C434.568 493.96 450.321 512.351 460.466 537.435C471.592 564.95 475.59 595.863 471.724 624.48C467.421 656.464 453.755 684.645 432.206 705.966C395.679 742.119 340.961 762.023 278.136 762.023ZM228.838 174.547C198.794 174.547 168.989 183.788 140.246 202.017C115.48 217.732 92.4519 239.784 73.6656 265.777C39.8878 312.537 19.2727 370.091 14.0605 432.211C8.89399 493.838 19.2879 554.039 44.1247 606.308C64.943 650.168 93.5594 684.33 129.181 707.855C163.254 730.364 204.977 743.921 253.192 748.151C261.544 748.887 269.931 749.263 278.13 749.263C337.573 749.263 389.101 730.669 423.224 696.908C442.752 677.587 455.147 651.955 459.069 622.79C462.641 596.335 458.937 567.728 448.63 542.233C439.267 519.084 424.204 501.495 409.64 484.485C388.247 459.524 369.883 438.101 371.651 403.314C372.052 395.51 372.606 387.386 373.149 379.515C377.162 321.438 381.709 255.611 326.448 209.146C324.365 207.389 322.175 205.668 319.914 204.023C301.169 190.42 279.817 183.037 265.212 179.244C253.243 176.121 241.005 174.547 228.838 174.547ZM278.136 741.393C270.073 741.393 261.915 741.032 253.883 740.321C157.401 731.837 91.1107 686.9 51.2267 602.921C1.84786 498.977 13.6998 362.221 80.0462 270.362C119.844 215.285 175.466 182.407 228.838 182.407C240.39 182.407 251.963 183.9 263.23 186.845C277.17 190.465 297.521 197.488 315.302 210.375C317.41 211.918 319.432 213.477 321.393 215.127C373.571 259.023 369.37 319.975 365.305 378.921C364.752 386.959 364.198 394.967 363.797 402.903C361.861 440.818 382.1 464.429 403.528 489.431C417.732 506.004 432.424 523.146 441.329 545.168C462.539 597.62 453.039 656.348 417.692 691.307C385.037 723.606 335.475 741.393 278.136 741.393ZM228.838 195.183C179.556 195.183 127.804 226.08 90.3995 277.846C26.6643 366.095 15.2899 497.519 62.7636 597.447C100.534 676.978 163.416 719.554 255.001 727.602C262.667 728.282 270.444 728.622 278.13 728.622C332.081 728.622 378.458 712.151 408.7 682.233C445.348 645.989 445.546 589.678 429.483 549.951C421.36 529.869 407.364 513.534 393.825 497.738C371.711 471.938 348.841 445.261 351.035 402.258C351.442 394.246 352.001 386.162 352.554 378.043C356.578 319.711 360.378 264.614 313.163 224.892C311.421 223.424 309.617 222.038 307.768 220.687C291.628 208.989 272.883 202.54 260.005 199.194C249.788 196.533 239.303 195.183 228.838 195.183Z" fill="#00A1A1"/>
<path d="M328.578 340.03C326.713 340.03 324.848 339.264 323.481 337.781C314.625 328.032 281.235 321.938 269.177 330.18C266.032 332.307 261.758 331.495 259.614 328.367C257.475 325.239 258.283 320.948 261.413 318.811C279.563 306.431 320.595 314.149 333.669 328.524C336.22 331.337 336.012 335.699 333.202 338.238C331.881 339.436 330.224 340.03 328.578 340.03Z" fill="#00A1A1"/>
<path d="M328.523 344.294C325.413 344.294 322.41 342.974 320.291 340.669C315.408 335.286 299.488 330.584 286.216 330.584C279.681 330.584 274.467 331.691 271.525 333.697C266.571 337.053 259.391 335.657 256.047 330.777C254.365 328.324 253.745 325.364 254.299 322.434C254.848 319.509 256.5 316.976 258.949 315.305C265.6 310.766 275.138 308.369 286.531 308.369C306.526 308.369 327.649 315.645 336.765 325.669C338.772 327.878 339.794 330.731 339.646 333.712C339.499 336.677 338.203 339.409 336.003 341.4C333.955 343.263 331.293 344.294 328.523 344.294ZM286.221 322.074C300.321 322.074 319.275 326.882 326.587 334.931C327.517 335.941 329.229 336.053 330.286 335.093C330.81 334.626 331.11 333.991 331.14 333.296C331.176 332.59 330.932 331.914 330.459 331.391C322.944 323.125 304.056 316.889 286.531 316.889C276.998 316.889 268.908 318.824 263.761 322.338C263.187 322.729 262.806 323.323 262.673 324.013C262.546 324.704 262.684 325.4 263.08 325.973C263.868 327.121 265.565 327.461 266.739 326.669C272.287 322.871 280.397 322.074 286.221 322.074Z" fill="#00A1A1"/>
<path d="M126.055 337.642C124.567 337.642 123.078 337.155 121.823 336.17C118.825 333.834 118.306 329.503 120.649 326.517C134.216 309.232 175.654 304.236 192.463 314.016C195.746 315.925 196.859 320.129 194.943 323.404C193.038 326.695 188.83 327.807 185.543 325.887C174.166 319.281 140.481 323.552 131.472 335.017C130.115 336.728 128.108 337.642 126.055 337.642Z" fill="#00A1A1"/>
<path d="M126.003 341.902C123.533 341.902 121.094 341.059 119.138 339.521C116.806 337.703 115.317 335.067 114.951 332.112C114.59 329.152 115.403 326.232 117.248 323.891C127.593 310.714 150.561 304.814 168.737 304.814C179.261 304.814 188.433 306.774 194.556 310.339C197.127 311.837 198.962 314.243 199.724 317.112C200.481 319.981 200.074 322.982 198.575 325.547C195.623 330.65 188.489 332.554 183.346 329.563C180.572 327.954 175.404 327.024 169.19 327.024C154.576 327.024 139.458 331.691 134.778 337.652C132.634 340.358 129.438 341.902 126.003 341.902ZM168.737 313.329C149.682 313.329 131.262 319.834 123.95 329.152C123.518 329.7 123.325 330.391 123.411 331.086C123.498 331.782 123.843 332.397 124.392 332.823C125.551 333.737 127.212 333.488 128.086 332.386C135.236 323.282 154.179 318.514 169.19 318.514C174.698 318.514 182.376 319.159 187.64 322.216C188.905 322.957 190.511 322.5 191.212 321.281C191.568 320.662 191.665 319.961 191.487 319.291C191.309 318.615 190.877 318.052 190.272 317.701C185.425 314.878 177.777 313.329 168.737 313.329Z" fill="#00A1A1"/>
<path d="M155.999 553.411C166.935 560.616 177.897 567.202 189.306 572.026C200.675 576.865 212.368 580.023 223.919 580.602C229.72 580.932 235.349 580.602 240.987 579.734C246.57 578.8 252.015 577.393 256.683 575.245C261.362 573.107 265.238 570.401 267.498 567.258C268.057 566.476 268.59 565.689 268.997 564.876C269.21 564.455 269.413 564.044 269.591 563.617C269.682 563.409 269.753 563.18 269.84 562.957L270.007 562.465L270.358 561.327L270.475 560.809C270.571 560.342 270.663 559.865 270.739 559.418C270.851 558.499 270.901 557.62 270.851 556.767C270.764 553.487 269.332 550.176 266.243 546.708C263.262 543.22 258.863 540.031 254.057 537.264C249.242 534.446 243.857 532.161 238.412 530.195C235.674 529.221 232.915 528.439 229.964 527.667C227.003 526.864 223.93 526.123 220.826 525.372C208.375 522.345 195.26 519.177 182.845 513.434C176.709 510.524 170.659 506.985 165.564 502.253C160.444 497.627 156.481 491.635 154.836 485.278C158.772 490.559 163.832 494.326 169.252 497.028C174.697 499.729 180.549 501.486 186.528 502.776C198.546 505.38 210.981 506.289 223.889 507.615C227.114 507.975 230.386 508.341 233.749 508.793C237.101 509.275 240.621 509.925 244.06 510.788C250.953 512.439 257.633 514.84 264.217 518.039C270.769 521.274 277.185 525.422 282.94 531.424C285.77 534.461 288.37 538.025 290.346 542.199C292.322 546.353 293.577 551.111 293.755 555.858C293.862 558.24 293.689 560.596 293.333 562.85C293.145 563.983 292.912 565.08 292.658 566.176L292.145 568.004L291.794 569.172L291.459 570.152L291.159 570.96C290.946 571.488 290.748 572.006 290.514 572.529C290.067 573.59 289.564 574.621 289.011 575.626C287.913 577.632 286.643 579.536 285.221 581.288C279.451 588.295 272.049 592.657 264.826 595.343C257.562 598.019 250.283 599.365 243.07 599.766C239.478 599.979 235.887 600.009 232.291 599.771C228.603 599.542 225.149 599.05 221.613 598.41C207.583 595.734 194.711 589.641 183.749 581.74C172.782 573.808 163.461 564.176 155.999 553.411Z" fill="#00A1A1"/>
<path d="M237.533 606.305C235.669 606.305 233.805 606.249 231.941 606.122C228.41 605.898 224.783 605.436 220.547 604.67C206.461 601.984 192.492 595.839 180.087 586.898C168.693 578.651 158.854 568.602 150.818 557.02L131.983 529.859L159.58 548.053C168.282 553.786 179.818 561.026 191.857 566.114C203.266 570.974 214.177 573.685 224.306 574.198C229.716 574.508 234.638 574.234 240.078 573.396C245.625 572.467 250.36 571.126 254.073 569.42C257.964 567.643 260.905 565.541 262.373 563.499C262.724 563.012 263.094 562.514 263.359 561.981C263.511 561.686 263.648 561.412 263.765 561.128L264.512 558.31C264.532 558.071 264.568 557.568 264.542 557.081C264.486 555.085 263.511 553.131 261.545 550.927C259.249 548.246 255.612 545.453 250.939 542.767C246.961 540.441 242.192 538.293 236.319 536.176C234.12 535.394 231.682 534.663 228.436 533.825C225.459 533.018 222.447 532.291 219.404 531.555C206.375 528.392 193.142 525.172 180.24 519.206C172.259 515.423 166.26 511.523 161.292 506.908C155.11 501.322 150.625 494.183 148.725 486.851L140.572 455.348L160.033 481.438C163.019 485.444 167.109 488.755 172.183 491.284C176.592 493.477 181.606 495.138 187.951 496.509C197.531 498.585 207.441 499.55 217.931 500.576L225.291 501.312C228.365 501.657 231.484 502.008 234.684 502.444C238.615 503.008 242.303 503.719 245.686 504.567C253.001 506.319 260.021 508.842 267.082 512.27C275.311 516.332 282.016 521.141 287.619 526.98C291.241 530.86 294.106 535.023 296.189 539.441C298.612 544.534 300.003 550.125 300.212 555.588C300.323 558.218 300.156 561.001 299.709 563.824C299.495 565.134 299.231 566.368 298.952 567.592L296.981 573.751C296.798 574.213 296.61 574.67 296.402 575.127C295.94 576.234 295.345 577.468 294.68 578.672C293.39 581.033 291.896 583.262 290.245 585.288C284.404 592.381 276.632 597.764 267.128 601.298C259.706 604.03 251.767 605.645 243.502 606.107C241.526 606.239 239.53 606.305 237.533 606.305ZM193.447 580.474C202.768 586.212 212.831 590.203 222.884 592.122C226.612 592.798 229.675 593.189 232.764 593.387C236.126 593.605 239.433 593.58 242.76 593.382C249.882 592.981 256.394 591.66 262.693 589.34C270.043 586.608 275.997 582.526 280.365 577.219C281.503 575.823 282.56 574.244 283.484 572.553C283.931 571.735 284.338 570.908 284.698 570.055L286.1 566.175L286.588 564.439C286.74 563.758 286.944 562.793 287.111 561.798C287.416 559.869 287.533 557.944 287.452 556.121C287.314 552.389 286.319 548.423 284.653 544.92C283.124 541.685 281.005 538.608 278.349 535.765C273.787 531.007 268.403 527.168 261.469 523.746C255.292 520.75 249.125 518.531 242.654 516.982C239.631 516.225 236.375 515.596 232.916 515.098C229.863 514.682 226.846 514.347 223.874 514.012L216.691 513.296C208.137 512.458 199.954 511.661 191.831 510.269C201.742 514.128 212.11 516.652 222.188 519.099C225.566 519.912 228.695 520.674 231.712 521.491C235.273 522.41 238.052 523.243 240.637 524.167C247.276 526.559 252.737 529.032 257.365 531.738C263.328 535.165 267.986 538.811 271.176 542.543C275.093 546.931 277.185 551.688 277.312 556.578C277.373 557.604 277.323 558.843 277.15 560.189C277.018 560.996 276.916 561.544 276.805 562.093L275.956 565.012C275.753 565.571 275.657 565.83 275.555 566.074C275.321 566.627 275.057 567.17 274.778 567.739C274.158 568.968 273.416 570.039 272.771 570.943C269.927 574.899 265.441 578.281 259.407 581.038C254.677 583.216 248.851 584.892 242.105 586.014C235.674 587.004 229.772 587.309 223.62 586.958C214.03 586.471 203.896 584.293 193.447 580.474Z" fill="#00A1A1"/>
<path d="M227.47 412.298C226.703 412.298 225.936 412.298 225.199 412.273C203.607 411.399 181.629 398.035 181.375 374.19C181.34 370.391 184.383 367.279 188.188 367.243C188.214 367.243 188.234 367.243 188.254 367.243C192.024 367.243 195.108 370.264 195.133 374.047C195.311 390.022 211.116 397.943 225.733 398.532C241.411 399.167 257.932 391.728 259.578 373.702C259.914 369.924 263.251 367.116 267.041 367.472C270.837 367.822 273.605 371.173 273.285 374.961C270.908 400.873 248.315 412.298 227.47 412.298Z" fill="#00A1A1"/>
<path d="M227.412 416.534C226.589 416.534 225.761 416.529 224.973 416.498C201.375 415.544 177.344 400.717 177.06 374.211C177.004 368.062 181.952 363.019 188.089 362.958C194.287 362.958 199.281 367.909 199.332 373.987C199.48 387.179 213.181 393.745 225.842 394.258C238.253 394.705 253.794 389.51 255.278 373.292C255.822 367.173 261.181 362.613 267.38 363.212C273.466 363.771 277.993 369.199 277.464 375.303C274.853 403.789 250.446 416.534 227.412 416.534ZM188.191 371.469C186.723 371.484 185.559 372.677 185.569 374.124C185.798 395.314 205.734 407.201 225.308 407.993C225.984 408.024 226.695 408.018 227.407 408.018C246.57 408.018 266.861 397.67 268.98 374.551C269.102 373.114 268.03 371.819 266.587 371.687C266.587 371.687 266.572 371.687 266.556 371.687C264.987 371.687 263.874 372.733 263.752 374.058C261.867 394.71 242.841 403.499 225.491 402.763C208.934 402.088 191.011 392.826 190.807 374.074C190.802 372.632 189.629 371.469 188.191 371.469Z" fill="#00A1A1"/>
</svg>
